<svg width="194" height="193" viewBox="0 0 194 193" fill="none" xmlns="http://www.w3.org/2000/svg">
<path opacity="0.41" d="M88.2575 89.366C85.4538 86.2492 84.7372 81.7966 86.3999 77.9493C88.0488 74.1298 88.9671 69.9277 88.9671 65.503C88.9671 56.6952 85.3425 48.7362 79.4984 43.0314C76.3051 39.9146 75.4355 35.1141 77.2861 31.0581C78.5453 28.3031 79.241 25.2419 79.2341 22.0207C79.2062 10.0475 69.2158 0.230935 57.2425 0.404864C45.4293 0.578793 35.9049 10.2145 35.9049 22.0694C35.9049 25.2837 36.6006 28.3309 37.8599 31.072C39.7105 35.1211 38.8339 39.9215 35.6405 43.0383C29.7965 48.7432 26.1719 56.7022 26.1719 65.5099C26.1719 69.9208 27.0832 74.1159 28.7182 77.9215C30.374 81.7688 29.7061 86.2423 26.9024 89.3521C20.2374 96.7476 16.2092 106.557 16.2996 117.313C16.4805 140.014 34.8683 158.242 57.5695 158.242C80.3611 158.242 98.8393 139.764 98.8393 116.972C98.8463 106.355 94.839 96.678 88.2575 89.366Z" fill="#FFE6C7"/>
<path d="M36.7955 75.6535C35.3763 74.0743 35.0145 71.8202 35.8563 69.8791C36.6912 67.945 37.1504 65.8161 37.1504 63.5829C37.1504 59.1303 35.3137 55.1021 32.3638 52.2149C30.7498 50.6426 30.3115 48.2076 31.2437 46.1552C31.8768 44.7638 32.2317 43.2123 32.2317 41.5843C32.2177 35.5247 27.1599 30.5573 21.1072 30.6477C15.131 30.7381 10.3097 35.6082 10.3097 41.6052C10.3097 43.2262 10.6645 44.7707 11.2976 46.1552C12.2368 48.2076 11.7915 50.6356 10.1775 52.2079C7.22068 55.0951 5.39095 59.1164 5.39095 63.5759C5.39095 65.8092 5.85012 67.9311 6.67802 69.8513C7.51984 71.7993 7.17893 74.0604 5.75967 75.6327C2.39241 79.3756 0.353967 84.3361 0.39571 89.7766C0.486153 101.263 9.79482 110.481 21.2741 110.481C32.8091 110.481 42.1526 101.131 42.1526 89.6026C42.1456 84.2456 40.1211 79.3548 36.7955 75.6535Z" fill="#E3E6FF"/>
<path opacity="0.41" d="M132.206 123.644C129.402 120.527 128.686 116.075 130.349 112.227C131.997 108.408 132.916 104.206 132.916 99.781C132.916 90.9733 129.291 83.0143 123.447 77.3094C120.254 74.1926 119.384 69.3922 121.235 65.3362C122.494 62.5811 123.19 59.52 123.183 56.2988C123.155 44.3256 113.164 34.509 101.191 34.6829C89.3778 34.8569 79.8535 44.4925 79.8535 56.3475C79.8535 59.5617 80.5492 62.609 81.8084 65.3501C83.659 69.3992 82.7824 74.1996 79.5891 77.3164C73.7451 83.0213 70.1204 90.9802 70.1204 99.788C70.1204 104.199 71.0318 108.394 72.6667 112.2C74.3225 116.047 73.6546 120.52 70.8509 123.63C64.1859 131.026 60.1578 140.835 60.2482 151.591C60.4291 174.292 78.8168 192.52 101.518 192.52C124.31 192.52 142.788 174.042 142.788 151.25C142.788 140.627 138.788 130.949 132.206 123.644Z" fill="#F7E7D7"/>
<path d="M186.082 144.676C184.134 142.512 183.64 139.416 184.795 136.744C185.943 134.094 186.576 131.172 186.576 128.097C186.576 121.981 184.057 116.45 180.001 112.492C177.782 110.328 177.177 106.989 178.464 104.171C179.334 102.258 179.821 100.136 179.814 97.8956C179.793 89.5818 172.856 82.7568 164.536 82.8821C156.326 83.0003 149.71 89.6931 149.71 97.9304C149.71 100.164 150.197 102.279 151.067 104.178C152.354 106.989 151.741 110.328 149.529 112.485C145.473 116.443 142.955 121.974 142.955 128.09C142.955 131.151 143.588 134.066 144.722 136.71C145.87 139.381 145.41 142.491 143.462 144.648C138.836 149.782 136.039 156.6 136.095 164.072C136.22 179.837 148.993 192.499 164.758 192.499C180.593 192.499 193.422 179.663 193.422 163.836C193.436 156.475 190.653 149.754 186.082 144.676Z" fill="#FFE6C7"/>
<path opacity="0.55" d="M57.0966 136.376C54.9051 133.941 54.3485 130.455 55.6425 127.443C56.9296 124.458 57.6462 121.167 57.6462 117.709C57.6462 110.822 54.8077 104.595 50.2438 100.136C47.7462 97.7007 47.0644 93.9438 48.5115 90.7714C49.4924 88.6216 50.042 86.2214 50.0351 83.7029C50.0142 74.3386 42.1944 66.6579 32.837 66.797C23.5979 66.9362 16.1468 74.4708 16.1468 83.7377C16.1468 86.2492 16.6964 88.6355 17.6704 90.7783C19.1175 93.9439 18.4287 97.7007 15.9381 100.136C11.3672 104.595 8.53564 110.822 8.53564 117.709C8.53564 121.16 9.24527 124.437 10.5254 127.415C11.8194 130.427 11.2976 133.92 9.10613 136.355C3.89522 142.136 0.74363 149.81 0.813201 158.221C0.959301 175.976 15.3397 190.231 33.0874 190.231C50.9117 190.231 65.3687 175.781 65.3687 157.95C65.3687 149.664 62.2379 142.094 57.0966 136.376Z" fill="#BABFF4"/>
<path d="M105.373 125.3C109.734 125.3 113.269 121.764 113.269 117.403C113.269 113.042 109.734 109.507 105.373 109.507C101.012 109.507 97.4763 113.042 97.4763 117.403C97.4763 121.764 101.012 125.3 105.373 125.3Z" fill="#FCF4EB"/>
<path d="M21.1344 92.0654C20.9883 92.0654 20.877 91.9472 20.877 91.808V37.5213C20.877 37.3752 20.9953 37.2639 21.1344 37.2639C21.2805 37.2639 21.3918 37.3822 21.3918 37.5213V91.808C21.3918 91.9472 21.2735 92.0654 21.1344 92.0654Z" fill="#FCF4EB"/>
<path d="M21.1345 48.4718C21.0788 48.4718 21.0301 48.4579 20.9814 48.4231L14.4556 43.6992C14.3374 43.6157 14.3095 43.4487 14.4 43.3374C14.4835 43.2191 14.6504 43.1913 14.7618 43.2817L21.1415 47.8943L27.7855 43.1426C27.9038 43.0591 28.0638 43.087 28.1473 43.2052C28.2308 43.3235 28.203 43.4835 28.0847 43.567L21.2876 48.43C21.2389 48.4579 21.1832 48.4718 21.1345 48.4718Z" fill="#FCF4EB"/>
<path d="M21.1345 60.1737C21.0788 60.1737 21.0301 60.1598 20.9814 60.125L14.4556 55.4011C14.3374 55.3176 14.3095 55.1506 14.4 55.0393C14.4835 54.921 14.6504 54.8932 14.7618 54.9837L21.1415 59.5962L27.7855 54.8445C27.9038 54.761 28.0638 54.7888 28.1473 54.9071C28.2308 55.0254 28.203 55.1854 28.0847 55.2689L21.2876 60.132C21.2389 60.1598 21.1832 60.1737 21.1345 60.1737Z" fill="#FCF4EB"/>
<path d="M21.1345 73.5664C21.0788 73.5664 21.0301 73.5525 20.9814 73.5177L14.4556 68.7938C14.3374 68.7103 14.3095 68.5433 14.4 68.432C14.4835 68.3137 14.6504 68.2859 14.7618 68.3764L21.1345 72.982L27.7786 68.2303C27.8969 68.1468 28.0569 68.1746 28.1404 68.2929C28.2238 68.4111 28.196 68.5712 28.0777 68.6546L21.2806 73.5177C21.2389 73.5525 21.1832 73.5664 21.1345 73.5664Z" fill="#FCF4EB"/>
<path d="M21.1345 86.9588C21.0788 86.9588 21.0301 86.9449 20.9814 86.9101L14.4556 82.1862C14.3374 82.1028 14.3095 81.9358 14.4 81.8245C14.4835 81.7062 14.6504 81.6784 14.7618 81.7688L21.1415 86.3814L27.7855 81.6297C27.9038 81.5462 28.0638 81.574 28.1473 81.6923C28.2308 81.8105 28.203 81.9706 28.0847 82.0541L21.2876 86.9171C21.2389 86.938 21.1832 86.9588 21.1345 86.9588Z" fill="#FCF4EB"/>
<path d="M115.113 171.509H107.808C107.808 171.509 109.832 177.659 110.201 182.098C110.91 190.628 113.512 192.687 115.885 192.687L115.113 171.509Z" fill="#F6C9B6"/>
<path d="M125.263 84.9275C124.915 85.3032 118.675 85.9363 113.763 98.3478C105.331 119.651 104.58 163.495 105.665 177.659H129.152L125.263 84.9275Z" fill="#2E26AF"/>
<path d="M175.333 192.694H115.885C115.885 192.694 114.75 166.097 114.876 157.567C115.001 149.031 121.701 139.805 121.701 139.805H163.367C168.661 141.489 173.288 150.756 173.288 156.976L175.104 188.728L175.333 192.694Z" fill="#FAAE00"/>
<path d="M137.528 156.69L133.479 192.694H144.193L137.528 156.69Z" fill="#EA9206"/>
<path d="M115.113 171.815H105.373C105.206 171.815 105.067 171.676 105.067 171.509C105.067 171.342 105.206 171.203 105.373 171.203H115.113C115.28 171.203 115.419 171.342 115.419 171.509C115.419 171.676 115.28 171.815 115.113 171.815Z" fill="white"/>
<path d="M115.112 177.966H109.477C109.31 177.966 109.171 177.826 109.171 177.659C109.171 177.492 109.31 177.353 109.477 177.353H115.112C115.279 177.353 115.418 177.492 115.418 177.659C115.418 177.826 115.279 177.966 115.112 177.966Z" fill="#E9C8DA"/>
<path d="M174.603 164.107H145.181C143.414 164.107 141.981 162.674 141.981 160.907V145.858C141.981 144.091 143.414 142.658 145.181 142.658H174.603C176.37 142.658 177.803 144.091 177.803 145.858V160.907C177.803 162.674 176.37 164.107 174.603 164.107Z" fill="#FDD391"/>
<path d="M147.825 45.2996C147.825 45.2996 147.317 53.8986 154.295 55.5405C161.273 57.1824 165.294 58.4416 165.009 63.409C164.724 68.3695 165.385 67.2911 171.472 68.8217C177.56 70.3523 177.56 76.5441 177.56 76.5441L125.27 77.2538C125.27 77.2538 135.782 60.821 140.471 53.5716C145.153 46.3292 147.825 45.2996 147.825 45.2996Z" fill="#993F00"/>
<path d="M144.507 50.6147C146.724 50.6147 148.521 48.8175 148.521 46.6005C148.521 44.3834 146.724 42.5862 144.507 42.5862C142.29 42.5862 140.492 44.3834 140.492 46.6005C140.492 48.8175 142.29 50.6147 144.507 50.6147Z" fill="#FAAE00"/>
<path d="M121.701 139.798H163.367L165.941 99.1687C165.941 87.6616 156.612 78.332 145.105 78.332H140.485C128.978 78.332 119.649 87.6616 119.649 99.1687L121.701 139.798Z" fill="#2E26AF"/>
<path d="M146.656 69.1626C146.552 71.9802 146.907 76.6485 148.688 78.6591C149.481 80.3706 148.326 83.0004 142.544 83.0004C137.292 83.0004 136.471 79.8349 137.041 78.5269C137.041 78.5269 139.866 72.9264 139.414 69.1626H146.656Z" fill="#F6C9B6"/>
<path d="M147.31 65.3014C147.31 65.3014 147.359 67.6738 146.642 70.2201C145.793 73.2326 141.466 73.2952 137.577 72.843C134.55 72.4951 133.43 68.5156 133.43 68.5156L133.653 65.3432C132.832 65.1553 132.011 64.2648 131.635 63.0473C131.148 61.475 131.58 59.9375 132.596 59.6244C133.062 59.4783 133.57 59.6174 134.036 59.9583L134.23 57.2381C136.554 49.8218 146.051 53.9752 147.588 56.0693L147.456 60.9184C147.456 60.9184 149.515 58.0312 150.775 60.7514C152.201 63.8752 149.286 65.5936 147.31 65.3014Z" fill="#F6C9B6"/>
<path d="M146.844 58.8869C146.844 58.8869 145 58.3164 144.395 55.5892C144.395 55.5892 135.72 62.7968 130.947 56.0971C125.639 48.639 131.858 43.4768 137.556 43.8038C142.266 44.0681 143.846 47.8598 143.846 47.8598C143.846 47.8598 147.171 45.3622 149.543 47.1501C152.132 49.0982 151.415 53.6968 148.667 58.6155C147.964 59.8748 147.804 60.981 147.282 62.4698L146.844 58.8869Z" fill="#B55100"/>
<path d="M149.835 55.8048C149.021 55.1717 148.2 54.5386 147.386 53.9125C146.03 52.5489 145.056 50.9627 144.45 49.1538C143.949 50.26 143.24 51.241 142.315 52.1036C141.215 53.2864 139.914 54.1212 138.419 54.6082C136.971 55.3665 135.42 55.7144 133.75 55.6518C132.574 55.6448 131.44 55.4848 130.348 55.1648C130.529 55.4709 130.731 55.784 130.96 56.0971C135.733 62.8038 144.409 55.5892 144.409 55.5892C145.014 58.3164 146.858 58.8869 146.858 58.8869L147.31 62.4698C147.832 60.981 147.992 59.8817 148.694 58.6155C149.209 57.6902 149.654 56.7858 150.016 55.8953C149.947 55.8675 149.891 55.8396 149.835 55.8048Z" fill="#993F00"/>
<path d="M121.701 140.188C121.687 140.188 121.68 140.188 121.666 140.188C121.451 140.167 121.291 139.98 121.312 139.764L123.573 114.113C123.253 113.438 121.444 109.424 120.651 104.192C120.136 100.825 120.136 97.6105 120.651 94.6398C121.291 90.9177 122.745 87.5713 124.957 84.6911C125.089 84.5171 125.333 84.4893 125.507 84.6215C125.681 84.7537 125.708 84.9972 125.576 85.1711C120.727 91.4604 120.637 98.9115 121.416 104.053C122.265 109.66 124.296 113.828 124.317 113.869C124.352 113.932 124.359 114.008 124.359 114.078L122.091 139.84C122.07 140.035 121.903 140.188 121.701 140.188Z" fill="#03038E"/>
<path d="M147.754 64.3065C147.685 64.3065 147.615 64.2856 147.56 64.23C147.434 64.1187 147.421 63.9308 147.525 63.7986L149.515 61.4819C149.626 61.3567 149.814 61.3428 149.946 61.4471C150.071 61.5584 150.085 61.7463 149.981 61.8785L147.991 64.1952C147.921 64.2717 147.838 64.3065 147.754 64.3065Z" fill="#E9C8DA"/>
<path d="M138.043 133.175L147.101 139.799H138.043V133.175Z" fill="#03038E"/>
<path d="M141.849 135.583H121.472C121.305 135.583 121.166 135.444 121.166 135.277C121.166 135.11 121.305 134.97 121.472 134.97H141.849C142.016 134.97 142.156 135.11 142.156 135.277C142.156 135.444 142.016 135.583 141.849 135.583Z" fill="white"/>
<path d="M171.737 148.919C171.521 148.919 171.305 148.912 171.083 148.912C168.251 148.829 165.065 148.258 161.51 147.062L134.064 133.231L136.568 111.942L159.826 117.55C159.102 117.153 132.081 71.7506 161.51 81.4906C165.329 82.8124 173.413 86.618 180.287 109.069L188.316 130.928C190.744 136.8 185.811 148.975 171.737 148.919Z" fill="#2E26AF"/>
<path d="M157.509 86.3328C157.509 86.3328 167.221 86.9867 168.599 122.127L162.657 119.365C162.657 119.365 161.593 92.9908 157.509 86.3328Z" fill="#03038E"/>
<path d="M144.193 137.976C144.158 137.976 144.123 137.969 144.096 137.962C143.936 137.906 143.852 137.732 143.908 137.572L151.881 114.419C151.936 114.259 152.11 114.175 152.27 114.231C152.43 114.287 152.514 114.461 152.458 114.621L144.485 137.774C144.437 137.892 144.318 137.976 144.193 137.976Z" fill="white"/>
<path d="M123.308 85.8528C123.308 85.8528 117.7 119.964 144.186 144.773L149.188 142.658C149.188 142.658 125.263 118.051 130.084 81.115L123.308 85.8528Z" fill="#FDD391"/>
<path d="M143.873 109.062C143.873 109.062 143.672 103.072 142.572 102.334C141.473 101.597 140.075 102.995 140.075 102.995L143.873 109.062Z" fill="#F6C9B6"/>
<path d="M171.612 149.309L161.635 155.146C161.587 155.174 161.538 155.188 161.482 155.188C161.427 155.188 161.364 155.174 161.315 155.139L143.707 143.458C143.568 143.367 143.526 143.18 143.623 143.034C143.714 142.894 143.901 142.853 144.048 142.95L161.496 154.527L171.083 148.912C171.306 148.919 171.521 148.919 171.737 148.919C171.8 149.058 171.744 149.225 171.612 149.309Z" fill="white"/>
<path d="M146.934 112.102C146.934 112.102 144.332 111.135 144.145 110.189C143.957 109.243 142.224 101.256 136.784 100.95C136.784 100.95 133.048 100.894 132.79 101.52C132.79 101.52 130.182 102.299 130.084 103.531C130.084 103.531 128.943 103.941 129.194 105.061C129.444 106.182 133.062 109.792 133.437 113.424C133.813 117.056 133.417 121.981 137.354 123.985L141.842 126.232L146.934 112.102Z" fill="#F6C9B6"/>
<path d="M141.396 110.37C141.257 110.37 141.132 110.272 141.097 110.133C141.09 110.105 140.401 106.989 139.017 104.38C137.695 101.889 132.839 101.833 132.79 101.833C132.623 101.833 132.484 101.694 132.491 101.527C132.491 101.36 132.63 101.228 132.797 101.228C133.013 101.228 138.057 101.291 139.552 104.101C140.979 106.787 141.66 109.883 141.688 110.015C141.723 110.182 141.619 110.342 141.459 110.377C141.438 110.363 141.417 110.37 141.396 110.37Z" fill="white" fill-opacity="0.18"/>
<path d="M139.504 114.822C139.365 114.822 139.239 114.725 139.212 114.586C139.205 114.551 138.321 110.815 136.491 107.378C134.724 104.067 130.126 103.83 130.077 103.83C129.91 103.823 129.778 103.684 129.785 103.51C129.792 103.336 129.931 103.211 130.098 103.218C130.3 103.225 135.086 103.468 137.02 107.093C138.892 110.599 139.789 114.405 139.803 114.447C139.838 114.607 139.74 114.774 139.573 114.808C139.546 114.822 139.525 114.822 139.504 114.822Z" fill="white" fill-opacity="0.18"/>
<path d="M161.649 159.265C163.555 159.265 165.099 157.72 165.099 155.814C165.099 153.908 163.555 152.363 161.649 152.363C159.743 152.363 158.198 153.908 158.198 155.814C158.198 157.72 159.743 159.265 161.649 159.265Z" fill="#2E26AF"/>
<path d="M141.849 126.615C141.807 126.615 141.758 126.608 141.717 126.594C141.515 126.517 141.411 126.295 141.48 126.093L146.573 111.97C146.608 111.866 146.691 111.782 146.788 111.74C146.893 111.699 147.004 111.699 147.102 111.747L174.137 124.263C174.332 124.354 174.415 124.583 174.325 124.785C174.234 124.98 174.005 125.063 173.803 124.973L147.157 112.638L142.211 126.364C142.155 126.517 142.009 126.615 141.849 126.615Z" fill="#03038E"/>
<path d="M123.969 114.433H121.472C121.256 114.433 121.082 114.259 121.082 114.043C121.082 113.827 121.256 113.654 121.472 113.654H123.969C124.185 113.654 124.359 113.827 124.359 114.043C124.359 114.252 124.185 114.433 123.969 114.433Z" fill="#03038E"/>
<path d="M142.753 86.7503C142.405 86.7503 142.044 86.7364 141.668 86.7086C138.468 86.4581 136.109 85.4563 134.662 83.7448C132.999 81.776 133.166 79.5984 133.173 79.5079C133.187 79.341 133.333 79.2157 133.5 79.2297C133.667 79.2436 133.792 79.3897 133.779 79.5566C133.779 79.5775 133.626 81.5812 135.128 83.3552C136.471 84.9345 138.683 85.8598 141.71 86.0964C145.23 86.3747 147.888 85.3102 149.606 82.9378C150.893 81.1637 151.144 79.2923 151.151 79.2714C151.171 79.1044 151.325 78.9862 151.491 79.007C151.658 79.0279 151.777 79.181 151.756 79.3479C151.742 79.4314 151.478 81.3933 150.1 83.2926C148.938 84.9136 146.726 86.7503 142.753 86.7503Z" fill="white"/>
<path d="M86.5952 169.005H94.7629C94.7629 169.005 92.5018 175.885 92.0914 180.853C91.2982 190.391 88.3901 192.701 85.7325 192.701L86.5952 169.005Z" fill="#F6C9B6"/>
<path d="M75.2412 72.1819C75.6308 72.6063 82.6088 73.3089 88.098 87.1885C97.5319 111.01 98.3667 160.044 97.1562 175.878H70.886L75.2412 72.1819Z" fill="#F9B75F"/>
<path d="M79.2275 133.544C79.2275 133.544 86.7204 143.862 86.8595 153.407C86.9986 162.952 85.7325 192.694 85.7325 192.694H19.2499L21.5318 152.746C21.5318 145.796 26.7079 135.43 32.6285 133.551H79.2275V133.544Z" fill="#2E26AF"/>
<path d="M68.113 47.7061C68.6592 45.9446 68.1799 44.2306 67.0422 43.8778C65.9046 43.5249 64.5395 44.6669 63.9932 46.4284C63.4469 48.1899 63.9263 49.9039 65.0639 50.2567C66.2016 50.6096 67.5667 49.4676 68.113 47.7061Z" fill="#F7A6CC"/>
<path d="M79.2271 133.544H32.6351L29.7617 88.1069C29.7617 75.2362 40.1975 64.8074 53.0613 64.8074H58.2235C71.0942 64.8074 81.523 75.2431 81.523 88.1069L79.2271 133.544Z" fill="#FDD391"/>
<path d="M51.3151 54.5525C51.4334 57.7041 51.0368 62.922 49.047 65.1761C48.1635 67.0893 49.4506 70.0252 55.9138 70.0252C61.7926 70.0252 62.7039 66.484 62.0708 65.023C62.0708 65.023 58.9123 58.7616 59.4202 54.5525H51.3151Z" fill="#F6C9B6"/>
<path d="M65.2156 41.2087L66.1062 53.822C66.1062 53.822 64.8539 58.2676 61.4727 58.6572C57.1175 59.1581 52.2823 59.0955 51.3361 55.7282C50.536 52.8828 50.5917 50.2321 50.5917 50.2321C48.3793 50.5591 45.1164 48.6389 46.7305 45.1464C48.1289 42.1061 50.4386 45.3343 50.4386 45.3343L50.2856 39.9077C52.004 37.5631 62.6206 32.9157 65.2156 41.2087Z" fill="#F6C9B6"/>
<path d="M51.1066 43.0593C51.1066 43.0593 53.1729 42.4262 53.8408 39.372C53.8408 39.372 63.5391 47.4354 68.8752 39.9356C74.8166 31.5939 67.8525 25.8265 61.4798 26.1882C56.2132 26.4874 54.4461 30.7243 54.4461 30.7243C54.4461 30.7243 50.724 27.9275 48.0733 29.9312C45.1791 32.1088 45.9792 37.2501 49.0473 42.7532C49.8335 44.1655 50.0074 45.3969 50.5918 47.0597L51.1066 43.0593Z" fill="#B55100"/>
<path d="M65.2782 40.0677C63.2258 40.0608 61.3126 39.5459 59.5385 38.5163C58.7732 37.9249 58.0079 37.3336 57.2357 36.7422C55.8304 35.3229 54.8494 33.6532 54.3137 31.7261C54.272 31.4339 54.2372 31.1486 54.1954 30.8564C54.0424 31.3504 53.8406 31.8374 53.5971 32.3105C53.1379 33.7228 52.3587 34.9403 51.2456 35.97C50.2159 37.0761 48.9984 37.8623 47.5861 38.3215C47.4331 38.405 47.28 38.4745 47.12 38.5441C47.5861 39.8938 48.2331 41.313 49.0402 42.7601C49.8263 44.1724 50.0003 45.4039 50.5847 47.0666L51.0925 43.0593C51.0925 43.0593 53.1588 42.4262 53.8267 39.372C53.8267 39.372 63.525 47.4353 68.8611 39.9355C69.0281 39.7059 69.1811 39.4694 69.3272 39.2468C68.0819 39.852 66.7253 40.1234 65.2782 40.0677Z" fill="#993F00"/>
<path d="M34.7085 68.3277C30.4368 69.8026 21.3994 74.0604 13.7118 99.1688L4.73703 123.616C2.23246 129.258 5.29361 147.82 29.755 139.576L65.4034 126.19L62.5997 102.383L36.5938 108.651C37.4078 108.213 67.6228 57.4398 34.7085 68.3277Z" fill="#FDD391"/>
<path d="M50.8072 102.905C50.8072 102.905 53.2422 101.228 54.6754 99.7044C56.0111 95.3214 56.2059 85.5326 58.5783 86.4371C62.6761 87.9955 59.6289 93.7073 61.6047 96.2536C63.2814 97.5268 66.6069 94.9526 68.6036 95.6136C70.8438 96.351 69.5289 99.5444 69.5289 99.5444C69.5289 99.5444 71.623 99.6487 72.1378 102.32C72.6109 104.79 71.3865 106.759 71.3865 106.759C71.3865 106.759 72.8127 110.474 70.2942 111.712C68.3044 112.686 54.5919 117.25 54.5919 117.25L50.8072 102.905Z" fill="#F6C9B6"/>
<path d="M50.8072 102.905L57.34 116.318L54.5849 117.243L50.8072 102.905Z" fill="#F6C9B6"/>
<path d="M61.5285 152.426L66.0576 192.694H54.0774L61.5285 152.426Z" fill="#03038E"/>
<path d="M33.6718 74.5891C33.6718 74.5891 22.8116 75.3196 21.2672 114.614L27.9112 111.525C27.9112 111.532 29.1009 82.0333 33.6718 74.5891Z" fill="#F9B75F"/>
<path d="M13.9139 117.793C13.7609 117.793 13.6148 117.703 13.5521 117.556C13.4687 117.355 13.5661 117.125 13.7609 117.049L27.6543 111.232C27.8561 111.149 28.0787 111.239 28.1622 111.441C28.2457 111.643 28.1483 111.872 27.9535 111.949L14.06 117.765C14.0183 117.786 13.9626 117.793 13.9139 117.793Z" fill="#F48A16"/>
<path d="M45.84 133.934C45.6869 133.934 45.5408 133.843 45.4782 133.697C45.3947 133.495 45.4852 133.266 45.6869 133.182L57.1036 128.34L50.3204 102.599L27.9532 111.942C27.8279 111.991 27.6888 111.977 27.5775 111.9C27.4662 111.824 27.4035 111.692 27.4105 111.559C27.4175 111.455 27.974 100.95 29.3585 86.6528C30.089 79.0765 32.9901 74.4639 35.2999 71.9315C37.8114 69.1695 40.1351 68.2233 40.2325 68.1816C40.4343 68.0981 40.6569 68.2025 40.7404 68.3973C40.8169 68.599 40.7265 68.8217 40.5247 68.9051C40.5039 68.9121 38.2428 69.8444 35.8495 72.4881C33.6372 74.93 30.8543 79.3896 30.1447 86.7224C28.955 99.0296 28.3706 108.519 28.2314 110.975L50.4387 101.701C50.543 101.659 50.6613 101.659 50.7657 101.708C50.87 101.757 50.9396 101.847 50.9674 101.959L57.9454 128.458C57.9942 128.646 57.8968 128.841 57.7228 128.918L45.9931 133.892C45.9444 133.927 45.8887 133.934 45.84 133.934Z" fill="#F48A16"/>
<path d="M50.4247 131.603C50.2577 131.603 50.1046 131.492 50.049 131.325L42.2013 105.528C42.1387 105.319 42.257 105.103 42.4587 105.041C42.6674 104.978 42.8831 105.096 42.9457 105.298L50.7934 131.095C50.856 131.304 50.7377 131.52 50.536 131.582C50.5012 131.596 50.4595 131.603 50.4247 131.603Z" fill="#F48A16"/>
<path d="M64.3524 102.112C64.2342 102.112 64.1228 102.042 64.0741 101.931C64.0046 101.778 64.0742 101.597 64.2272 101.527L69.4033 99.2524C69.5564 99.1828 69.7373 99.2524 69.8068 99.4054C69.8764 99.5585 69.8069 99.7394 69.6538 99.8089L64.4777 102.084C64.4359 102.105 64.3942 102.112 64.3524 102.112Z" fill="white" fill-opacity="0.16"/>
<path d="M66.9411 108.624C66.8159 108.624 66.6977 108.547 66.6559 108.422C66.6003 108.262 66.6837 108.088 66.8437 108.032L71.2894 106.46C71.4494 106.404 71.6233 106.488 71.679 106.648C71.7346 106.808 71.6511 106.982 71.4911 107.037L67.0455 108.61C67.0107 108.617 66.9759 108.624 66.9411 108.624Z" fill="white" fill-opacity="0.16"/>
<path d="M54.6756 100.004C54.5782 100.004 54.4808 99.955 54.4181 99.8645C54.3277 99.7254 54.3694 99.5375 54.5086 99.4471L55.8583 98.5775C55.9974 98.487 56.1853 98.5287 56.2757 98.6679C56.3661 98.807 56.3244 98.9949 56.1853 99.0853L54.8356 99.955C54.7869 99.9897 54.7312 100.004 54.6756 100.004Z" fill="#E9C8DA"/>
<path d="M97.4898 169.394H86.5949C86.3792 169.394 86.2053 169.22 86.2053 169.005C86.2053 168.789 86.3792 168.615 86.5949 168.615H97.4898C97.7055 168.615 97.8794 168.789 97.8794 169.005C97.8794 169.22 97.7055 169.394 97.4898 169.394Z" fill="#F48A16"/>
<path d="M55.6778 74.2761C51.2113 74.2761 48.7346 72.2098 47.4127 70.394C45.8682 68.2582 45.5691 66.0528 45.5552 65.9623C45.5273 65.7466 45.6804 65.5519 45.8891 65.524C46.1048 65.4962 46.2996 65.6492 46.3274 65.858C46.3274 65.8788 46.6196 67.9799 48.0597 69.9557C49.9729 72.5786 52.9228 73.7543 56.8257 73.4413C60.2 73.1769 62.6698 72.1472 64.1655 70.3801C65.8353 68.4112 65.6613 66.1989 65.6544 66.178C65.6335 65.9623 65.7935 65.7745 66.0092 65.7536C66.2249 65.7327 66.4127 65.8927 66.4336 66.1084C66.4405 66.2128 66.6353 68.6617 64.7569 70.881C63.1289 72.8082 60.4783 73.9283 56.8814 74.2135C56.4779 74.2552 56.0744 74.2761 55.6778 74.2761Z" fill="#F48A16"/>
<path d="M50.0911 49.0842C50.0076 49.0842 49.9241 49.0494 49.8615 48.9799L47.6352 46.3848C47.5239 46.2596 47.5378 46.0648 47.67 45.9535C47.7952 45.8422 47.99 45.8561 48.1013 45.9883L50.3276 48.5833C50.4389 48.7085 50.425 48.9033 50.2928 49.0146C50.2302 49.0564 50.1606 49.0842 50.0911 49.0842Z" fill="#E9C8DA"/>
<g opacity="0.43">
<path d="M164.223 107.789C156.71 107.789 149.641 104.881 144.319 99.6071C138.997 94.3335 136.033 87.2859 135.977 79.7722C135.922 72.6898 138.496 65.8927 143.234 60.6331C145.084 58.5738 145.564 55.5752 144.451 52.9872C143.289 50.2948 142.705 47.4354 142.705 44.4786C142.705 38.6346 145.008 33.1662 149.196 29.0754C151.325 27.0022 151.916 23.781 150.678 21.0747C149.787 19.1267 149.335 17.0465 149.335 14.8898C149.335 10.952 150.859 7.23692 153.621 4.43318C156.383 1.62945 160.07 0.0571299 164.001 0.00147261C167.98 -0.0541846 171.758 1.46943 174.638 4.30099C177.519 7.13256 179.105 10.8825 179.112 14.855C179.119 17.0187 178.667 19.1128 177.776 21.0677C176.538 23.788 177.129 27.0022 179.258 29.0824C183.439 33.1662 185.749 38.6346 185.749 44.4855C185.749 47.4493 185.158 50.3226 183.989 53.015C182.876 55.5822 183.363 58.5807 185.227 60.654C189.895 65.844 192.47 72.5507 192.47 79.5426C192.47 87.0912 189.534 94.1805 184.197 99.5166C178.861 104.853 171.765 107.789 164.223 107.789ZM164.217 0.258888C164.147 0.258888 164.07 0.258888 164.001 0.258888C156.056 0.37716 149.593 6.93776 149.593 14.8898C149.593 17.0117 150.038 19.0571 150.908 20.9634C152.195 23.7741 151.575 27.1066 149.37 29.2633C145.237 33.2984 142.962 38.7041 142.962 44.4786C142.962 47.3936 143.54 50.2252 144.688 52.8828C145.843 55.5683 145.349 58.6781 143.429 60.807C138.732 66.0179 136.179 72.7524 136.235 79.7722C136.36 95.078 148.911 107.531 164.223 107.531C179.654 107.531 192.212 94.9736 192.212 79.5426C192.212 72.6203 189.666 65.9692 185.039 60.8279C183.105 58.6781 182.604 55.5683 183.752 52.9106C184.907 50.2461 185.492 47.4075 185.492 44.4855C185.492 38.7111 183.217 33.3054 179.084 29.2702C176.879 27.1205 176.266 23.781 177.553 20.9634C178.43 19.0432 178.875 16.9908 178.868 14.862C178.861 10.952 177.296 7.2717 174.471 4.48884C171.675 1.75468 168.05 0.258888 164.217 0.258888Z" fill="#F9B75F"/>
<path d="M164.084 65.1551C163.987 65.1551 163.91 65.0785 163.91 64.9811V10.6944C163.91 10.597 163.987 10.5205 164.084 10.5205C164.181 10.5205 164.258 10.597 164.258 10.6944V64.9811C164.258 65.0785 164.181 65.1551 164.084 65.1551Z" fill="#F9B75F"/>
<path d="M164.083 21.5684C164.048 21.5684 164.014 21.5545 163.979 21.5336L157.453 16.8097C157.377 16.7541 157.356 16.6427 157.411 16.5662C157.467 16.4897 157.578 16.4688 157.655 16.5245L164.083 21.1718L170.783 16.3784C170.86 16.3227 170.971 16.3436 171.026 16.4201C171.082 16.4966 171.061 16.608 170.985 16.6636L164.188 21.5267C164.153 21.5545 164.118 21.5684 164.083 21.5684Z" fill="#F9B75F"/>
<path d="M164.083 33.2703C164.048 33.2703 164.014 33.2564 163.979 33.2355L157.453 28.5116C157.377 28.456 157.356 28.3446 157.411 28.2681C157.467 28.1916 157.578 28.1707 157.655 28.2264L164.083 32.8738L170.783 28.0803C170.86 28.0246 170.971 28.0455 171.026 28.122C171.082 28.1985 171.061 28.3099 170.985 28.3655L164.188 33.2286C164.153 33.2564 164.118 33.2703 164.083 33.2703Z" fill="#F9B75F"/>
<path d="M164.083 46.6561C164.048 46.6561 164.014 46.6421 163.979 46.6213L157.453 41.8974C157.377 41.8417 157.356 41.7304 157.411 41.6539C157.467 41.5773 157.578 41.5565 157.655 41.6121L164.083 46.2595L170.783 41.466C170.86 41.4104 170.971 41.4312 171.026 41.5078C171.082 41.5843 171.061 41.6956 170.985 41.7513L164.188 46.6143C164.153 46.6491 164.118 46.6561 164.083 46.6561Z" fill="#F9B75F"/>
<path d="M164.083 60.0484C164.048 60.0484 164.014 60.0345 163.979 60.0136L157.453 55.2897C157.377 55.234 157.356 55.1227 157.411 55.0462C157.467 54.9697 157.578 54.9488 157.655 55.0044L164.083 59.6518L170.783 54.8583C170.86 54.8027 170.971 54.8236 171.026 54.9001C171.082 54.9766 171.061 55.0879 170.985 55.1436L164.188 60.0066C164.153 60.0345 164.118 60.0484 164.083 60.0484Z" fill="#F9B75F"/>
<path d="M145.974 26.8562C150.336 26.8562 153.871 23.3209 153.871 18.9598C153.871 14.5988 150.336 11.0635 145.974 11.0635C141.613 11.0635 138.078 14.5988 138.078 18.9598C138.078 23.3209 141.613 26.8562 145.974 26.8562Z" fill="#FFE6C7"/>
</g>
<path d="M112.093 29.2911C113.622 29.2911 114.862 28.0514 114.862 26.5221C114.862 24.9929 113.622 23.7532 112.093 23.7532C110.564 23.7532 109.324 24.9929 109.324 26.5221C109.324 28.0514 110.564 29.2911 112.093 29.2911Z" fill="#FFE6C7"/>
<path d="M8.11132 89.4634C9.64057 89.4634 10.8803 88.2237 10.8803 86.6945C10.8803 85.1652 9.64057 83.9255 8.11132 83.9255C6.58208 83.9255 5.34238 85.1652 5.34238 86.6945C5.34238 88.2237 6.58208 89.4634 8.11132 89.4634Z" fill="#FFE6C7"/>
</svg>
