<svg width="33" height="32" viewBox="0 0 33 32" fill="none" xmlns="http://www.w3.org/2000/svg">
<path d="M15.5993 22.6665H17.5993V14.6665H15.5993V22.6665ZM16.4987 12.1998C16.8103 12.1998 17.0716 12.0976 17.2827 11.8932C17.4938 11.6887 17.5993 11.4354 17.5993 11.1332C17.5993 10.8121 17.494 10.5429 17.2833 10.3257C17.0725 10.1084 16.8114 9.99984 16.4999 9.99984C16.1884 9.99984 15.9271 10.1084 15.716 10.3257C15.5049 10.5429 15.3993 10.8121 15.3993 11.1332C15.3993 11.4354 15.5047 11.6887 15.7154 11.8932C15.9261 12.0976 16.1873 12.1998 16.4987 12.1998ZM16.5082 29.3332C14.6697 29.3332 12.9419 28.9832 11.3249 28.2832C9.70786 27.5832 8.29379 26.6276 7.08268 25.4165C5.87157 24.2054 4.91602 22.7905 4.21602 21.1718C3.51602 19.5531 3.16602 17.8236 3.16602 15.9832C3.16602 14.1427 3.51602 12.4132 4.21602 10.7945C4.91602 9.17585 5.87157 7.7665 7.08268 6.5665C8.29379 5.3665 9.70869 4.4165 11.3274 3.7165C12.946 3.0165 14.6756 2.6665 16.516 2.6665C18.3564 2.6665 20.086 3.0165 21.7046 3.7165C23.3233 4.4165 24.7327 5.3665 25.9327 6.5665C27.1327 7.7665 28.0827 9.17761 28.7827 10.7998C29.4827 12.4221 29.8327 14.1524 29.8327 15.991C29.8327 17.8295 29.4827 19.5573 28.7827 21.1743C28.0827 22.7913 27.1327 24.2033 25.9327 25.4104C24.7327 26.6174 23.3216 27.5729 21.6993 28.277C20.0771 28.9811 18.3467 29.3332 16.5082 29.3332ZM16.516 27.3332C19.6605 27.3332 22.3327 26.2276 24.5327 24.0165C26.7327 21.8054 27.8327 19.1276 27.8327 15.9832C27.8327 12.8387 26.7348 10.1665 24.5389 7.9665C22.3431 5.7665 19.6632 4.6665 16.4993 4.6665C13.366 4.6665 10.6938 5.76442 8.48268 7.96024C6.27157 10.1561 5.16602 12.8359 5.16602 15.9998C5.16602 19.1332 6.27157 21.8054 8.48268 24.0165C10.6938 26.2276 13.3716 27.3332 16.516 27.3332Z" fill="#4F4F4F"/>
</svg>
