<svg width="33" height="33" viewBox="0 0 33 33" fill="none" xmlns="http://www.w3.org/2000/svg">
<path d="M16.5007 27.8818C17.7844 27.8818 19.0361 27.672 20.2558 27.2523C21.4755 26.8327 22.581 26.2083 23.5725 25.3792C22.5366 24.6203 21.4199 24.0194 20.2223 23.5767C19.0247 23.1339 17.7841 22.9126 16.5005 22.9126C15.2169 22.9126 13.9742 23.1297 12.7725 23.5638C11.5708 23.998 10.4605 24.6032 9.44172 25.3792C10.4246 26.2083 11.5259 26.8327 12.7456 27.2523C13.9652 27.672 15.2169 27.8818 16.5007 27.8818ZM19.2904 16.4664L18.2033 15.3793C18.5469 15.1263 18.8067 14.8102 18.9828 14.431C19.1588 14.0518 19.2469 13.6499 19.2469 13.2254C19.2469 12.4612 18.9802 11.8124 18.447 11.2791C17.9137 10.7459 17.2649 10.4792 16.5007 10.4792C16.0762 10.4792 15.6743 10.5651 15.2951 10.7369C14.9159 10.9087 14.5998 11.1707 14.3469 11.5228L13.2597 10.4357C13.6664 9.95705 14.1499 9.59253 14.7103 9.34211C15.2707 9.09168 15.8694 8.96647 16.5063 8.96647C17.6784 8.96647 18.6803 9.38235 19.512 10.2141C20.3438 11.0459 20.7597 12.0477 20.7597 13.2198C20.7597 13.8567 20.6344 14.4553 20.384 15.0158C20.1336 15.5762 19.769 16.0597 19.2904 16.4664ZM26.8494 24.0254L25.8161 22.9792C26.4092 22.0356 26.8639 21.0395 27.1802 19.9908C27.4964 18.9421 27.6545 17.8545 27.6545 16.728C27.6545 13.6154 26.5737 10.9782 24.4121 8.81661C22.2504 6.65496 19.6133 5.57414 16.5007 5.57414C15.3742 5.57414 14.2866 5.73012 13.2379 6.04207C12.1892 6.35405 11.1999 6.82201 10.27 7.44594L9.20329 6.37927C10.2819 5.62032 11.4402 5.04426 12.6783 4.6511C13.9163 4.25793 15.1904 4.06134 16.5007 4.06134C18.2529 4.06134 19.8996 4.39384 21.4407 5.05884C22.9818 5.72384 24.3223 6.62634 25.4623 7.76634C26.6023 8.90634 27.5048 10.2469 28.1698 11.788C28.8348 13.3291 29.1673 14.9757 29.1673 16.728C29.1673 18.0382 28.9707 19.3124 28.5776 20.5504C28.1844 21.7884 27.6083 22.9467 26.8494 24.0254ZM16.4882 29.3946C14.7429 29.3946 13.1006 29.0617 11.5612 28.3959C10.0217 27.7301 8.68168 26.8273 7.54109 25.6876C6.40046 24.5478 5.49747 23.2076 4.83212 21.6668C4.16674 20.1261 3.83405 18.4798 3.83405 16.728C3.83405 15.3181 4.05927 13.9442 4.50972 12.6064C4.96014 11.2687 5.62894 10.0459 6.51612 8.93824L2.72125 5.11C2.57254 4.96836 2.49946 4.79107 2.50202 4.57814C2.50457 4.36523 2.58507 4.1844 2.74352 4.03567C2.89341 3.87843 3.07246 3.7998 3.28068 3.7998C3.48891 3.7998 3.66737 3.87843 3.81608 4.03567L29.1161 29.3434C29.2648 29.4936 29.3379 29.6751 29.3353 29.888C29.3327 30.101 29.2528 30.2818 29.0956 30.4305C28.9383 30.5878 28.7605 30.6664 28.5623 30.6664C28.364 30.6664 28.1862 30.5878 28.0289 30.4305L7.56995 9.99204C6.82635 10.9732 6.26994 12.0377 5.90072 13.1853C5.53147 14.3329 5.34685 15.5138 5.34685 16.728C5.34685 18.1346 5.59856 19.4845 6.10198 20.7778C6.60541 22.0711 7.3161 23.2425 8.23405 24.2921C9.47165 23.4459 10.7866 22.7523 12.1788 22.2113C13.571 21.6703 15.0116 21.3998 16.5007 21.3998C17.6426 21.3998 18.7524 21.5626 19.8302 21.8882C20.908 22.2139 21.9477 22.6545 22.9495 23.2101L25.4391 25.6997C24.2443 26.9066 22.8743 27.8241 21.3292 28.4523C19.784 29.0805 18.1704 29.3946 16.4882 29.3946Z" fill="#4F4F4F"/>
</svg>
