<svg width="21" height="20" viewBox="0 0 21 20" fill="none" xmlns="http://www.w3.org/2000/svg">
<path d="M5.14118 17.0834C4.72024 17.0834 4.36393 16.9375 4.07227 16.6459C3.7806 16.3542 3.63477 15.9979 3.63477 15.577V4.42317C3.63477 4.00222 3.7806 3.64591 4.07227 3.35425C4.36393 3.06258 4.72024 2.91675 5.14118 2.91675H16.295C16.7159 2.91675 17.0722 3.06258 17.3639 3.35425C17.6556 3.64591 17.8014 4.00222 17.8014 4.42317V15.577C17.8014 15.9979 17.6556 16.3542 17.3639 16.6459C17.0722 16.9375 16.7159 17.0834 16.295 17.0834H5.14118ZM5.14118 15.8334H16.295C16.3591 15.8334 16.4179 15.8067 16.4713 15.7533C16.5247 15.6998 16.5514 15.6411 16.5514 15.577V6.73083H4.88474V15.577C4.88474 15.6411 4.91145 15.6998 4.96487 15.7533C5.0183 15.8067 5.07707 15.8334 5.14118 15.8334Z" fill="#545454"/>
</svg>
