<svg width="24" height="24" viewBox="0 0 24 24" fill="none" xmlns="http://www.w3.org/2000/svg">
<path d="M11.2492 10.75V13C11.2492 13.2125 11.3211 13.3906 11.4649 13.5343C11.6088 13.6781 11.787 13.75 11.9995 13.75C12.2121 13.75 12.3902 13.6781 12.5338 13.5343C12.6774 13.3906 12.7492 13.2125 12.7492 13V10.75H14.9992C15.2117 10.75 15.3898 10.6781 15.5336 10.5343C15.6773 10.3904 15.7492 10.2122 15.7492 9.99965C15.7492 9.78705 15.6773 9.60896 15.5336 9.46538C15.3898 9.32179 15.2117 9.25 14.9992 9.25H12.7492V6.99998C12.7492 6.78748 12.6773 6.60935 12.5335 6.4656C12.3897 6.32187 12.2115 6.25 11.9989 6.25C11.7863 6.25 11.6082 6.32187 11.4646 6.4656C11.321 6.60935 11.2492 6.78748 11.2492 6.99998V9.25H8.99922C8.78672 9.25 8.60861 9.3219 8.46487 9.4657C8.32112 9.60952 8.24925 9.78772 8.24925 10.0003C8.24925 10.2129 8.32112 10.391 8.46487 10.5346C8.60861 10.6782 8.78672 10.75 8.99922 10.75H11.2492ZM11.9992 20.9403C11.8044 20.9403 11.6095 20.9067 11.4146 20.8394C11.2198 20.7721 11.0435 20.6679 10.8858 20.5269C9.98836 19.7 9.14862 18.8484 8.36657 17.9721C7.58452 17.0958 6.90471 16.2199 6.32715 15.3442C5.74958 14.4686 5.29253 13.6006 4.956 12.7404C4.61945 11.8801 4.45117 11.0493 4.45117 10.2481C4.45117 7.94038 5.19765 6.07213 6.6906 4.64328C8.18353 3.21443 9.95307 2.5 11.9992 2.5C14.0454 2.5 15.8149 3.21443 17.3078 4.64328C18.8008 6.07213 19.5473 7.94038 19.5473 10.2481C19.5473 11.0493 19.379 11.8785 19.0424 12.7356C18.7059 13.5926 18.2505 14.4606 17.6761 15.3394C17.1017 16.2183 16.4235 17.0942 15.6415 17.9673C14.8594 18.8404 14.0197 19.6903 13.1223 20.5173C12.9669 20.6583 12.7903 20.7641 12.5925 20.8346C12.3948 20.9051 12.197 20.9403 11.9992 20.9403Z" fill="#757575"/>
</svg>
