<svg width="28" height="28" viewBox="0 0 28 28" fill="none" xmlns="http://www.w3.org/2000/svg">
<path d="M14.875 13.1251V3.01099C17.6106 3.22787 19.9212 4.28385 21.8065 6.17892C23.6919 8.07402 24.7527 10.3894 24.9891 13.1251H14.875ZM13.143 24.96C10.2846 24.7431 7.88325 23.5846 5.93882 21.4847C3.99438 19.3847 3.02216 16.8898 3.02216 14.0001C3.02216 11.0909 3.99438 8.58628 5.93882 6.48628C7.88325 4.3863 10.2846 3.22787 13.143 3.01099V24.96ZM14.875 24.96V14.8571H24.9891C24.7767 17.5853 23.7218 19.8999 21.8245 21.801C19.9271 23.7021 17.6106 24.755 14.875 24.96Z" fill="white"/>
</svg>
