<svg width="20" height="20" viewBox="0 0 20 20" fill="none" xmlns="http://www.w3.org/2000/svg">
<path d="M14.1667 12.5002C13.5834 12.5002 13.0903 12.2988 12.6875 11.896C12.2847 11.4932 12.0834 11.0002 12.0834 10.4168C12.0834 9.8335 12.2847 9.34044 12.6875 8.93766C13.0903 8.53488 13.5834 8.3335 14.1667 8.3335C14.75 8.3335 15.2431 8.53488 15.6459 8.93766C16.0486 9.34044 16.25 9.8335 16.25 10.4168C16.25 11.0002 16.0486 11.4932 15.6459 11.896C15.2431 12.2988 14.75 12.5002 14.1667 12.5002ZM10.8334 16.6668C10.5972 16.6668 10.3993 16.587 10.2396 16.4272C10.0799 16.2675 10 16.0696 10 15.8335V15.5002C10 15.1668 10.0868 14.8578 10.2604 14.5731C10.434 14.2884 10.6806 14.0835 11 13.9585C11.5 13.7502 12.0174 13.5939 12.5521 13.4897C13.0868 13.3856 13.625 13.3335 14.1667 13.3335C14.7084 13.3335 15.2465 13.3856 15.7813 13.4897C16.316 13.5939 16.8334 13.7502 17.3334 13.9585C17.6528 14.0835 17.8993 14.2884 18.0729 14.5731C18.2465 14.8578 18.3334 15.1668 18.3334 15.5002V15.8335C18.3334 16.0696 18.2535 16.2675 18.0938 16.4272C17.934 16.587 17.7361 16.6668 17.5 16.6668H10.8334ZM8.33335 10.0002C7.41669 10.0002 6.63196 9.67377 5.97919 9.021C5.32641 8.36822 5.00002 7.5835 5.00002 6.66683C5.00002 5.75016 5.32641 4.96544 5.97919 4.31266C6.63196 3.65988 7.41669 3.3335 8.33335 3.3335C9.25002 3.3335 10.0347 3.65988 10.6875 4.31266C11.3403 4.96544 11.6667 5.75016 11.6667 6.66683C11.6667 7.5835 11.3403 8.36822 10.6875 9.021C10.0347 9.67377 9.25002 10.0002 8.33335 10.0002ZM1.66669 14.3335C1.66669 13.8613 1.78474 13.4272 2.02085 13.0314C2.25696 12.6356 2.58335 12.3335 3.00002 12.1252C3.83335 11.7085 4.69794 11.3891 5.59377 11.1668C6.4896 10.9446 7.4028 10.8335 8.33335 10.8335C8.81946 10.8335 9.30557 10.8752 9.79169 10.9585C10.2778 11.0418 10.7639 11.1391 11.25 11.2502L9.83335 12.6668C9.48613 13.0141 9.14932 13.3682 8.82294 13.7293C8.49655 14.0904 8.33335 14.5141 8.33335 15.0002V15.8127C8.33335 15.9793 8.3646 16.1356 8.4271 16.2814C8.4896 16.4272 8.5903 16.5557 8.72919 16.6668H3.33335C2.87502 16.6668 2.48266 16.5036 2.15627 16.1772C1.82988 15.8509 1.66669 15.4585 1.66669 15.0002V14.3335Z" fill="black"/>
</svg>
