<svg width="24" height="24" viewBox="0 0 24 24" fill="none" xmlns="http://www.w3.org/2000/svg">
<path d="M23.0602 12.9384H20.4096C20.1434 12.9384 19.9202 12.8507 19.7401 12.6753C19.5599 12.4998 19.4699 12.2824 19.4699 12.023C19.4699 11.7636 19.5599 11.5464 19.7401 11.3712C19.9202 11.196 20.1434 11.1084 20.4096 11.1084H23.0602C23.3265 11.1084 23.5497 11.1961 23.7298 11.3716C23.9099 11.547 24 11.7644 24 12.0238C24 12.2832 23.9099 12.5005 23.7298 12.6757C23.5497 12.8508 23.3265 12.9384 23.0602 12.9384ZM17.8482 17.7741C18.0089 17.5598 18.2141 17.4363 18.4639 17.4034C18.7136 17.3706 18.9486 17.4323 19.1686 17.5888L21.2819 19.135C21.502 19.2914 21.6289 19.4912 21.6627 19.7344C21.6964 19.9777 21.6329 20.2064 21.4723 20.4207C21.3117 20.635 21.1064 20.7586 20.8567 20.7914C20.6068 20.8243 20.3719 20.7625 20.1518 20.6061L18.0386 19.0599C17.8185 18.9034 17.6916 18.7036 17.6579 18.4604C17.6241 18.2172 17.6876 17.9884 17.8482 17.7741ZM21.2337 4.86492L19.1205 6.41113C18.9004 6.56754 18.6655 6.62933 18.4156 6.59649C18.1659 6.56363 17.9606 6.44006 17.8 6.22577C17.6394 6.01149 17.5759 5.78274 17.6096 5.53952C17.6434 5.2963 17.7703 5.09648 17.9904 4.94004L20.1037 3.39386C20.3237 3.23745 20.5587 3.17566 20.8084 3.2085C21.0582 3.24134 21.2634 3.36491 21.4241 3.57922C21.5847 3.7935 21.6482 4.02225 21.6144 4.26547C21.5807 4.50869 21.4538 4.70851 21.2337 4.86492ZM3.54215 15.1674H2.26502C1.64214 15.1674 1.10892 14.9514 0.665352 14.5195C0.221784 14.0876 0 13.5684 0 12.9619V11.0849C0 10.4784 0.221784 9.95922 0.665352 9.52732C1.10892 9.0954 1.64214 8.87944 2.26502 8.87944H7.1084L11.0048 6.61061C11.3823 6.39007 11.763 6.38883 12.1469 6.60689C12.5309 6.82494 12.7228 7.14292 12.7228 7.56086V16.486C12.7228 16.9039 12.5309 17.2219 12.1469 17.4399C11.763 17.658 11.3823 17.6568 11.0048 17.4362L7.1084 15.1674H5.42162V19.0153C5.42162 19.2746 5.33152 19.4919 5.15134 19.6672C4.97114 19.8426 4.74785 19.9303 4.48148 19.9303C4.21509 19.9303 3.99193 19.8426 3.81202 19.6672C3.63211 19.4919 3.54215 19.2746 3.54215 19.0153V15.1674ZM14.4578 15.8291V8.21777C14.9494 8.65105 15.3454 9.19792 15.6458 9.85836C15.9462 10.5188 16.0964 11.2414 16.0964 12.0263C16.0964 12.8112 15.9462 13.5328 15.6458 14.1914C15.3454 14.8499 14.9494 15.3958 14.4578 15.8291Z" fill="#545454"/>
</svg>
