<svg width="28" height="28" viewBox="0 0 28 28" fill="none" xmlns="http://www.w3.org/2000/svg">
<path d="M26.9036 15.095H23.8112C23.5006 15.095 23.2402 14.9926 23.0301 14.7879C22.8199 14.5832 22.7149 14.3296 22.7149 14.027C22.7149 13.7244 22.8199 13.4709 23.0301 13.2665C23.2402 13.0621 23.5006 12.9599 23.8112 12.9599H26.9036C27.2143 12.9599 27.4746 13.0623 27.6848 13.267C27.8949 13.4717 28 13.7253 28 14.0279C28 14.3305 27.8949 14.584 27.6848 14.7884C27.4746 14.9928 27.2143 15.095 26.9036 15.095ZM20.8229 20.7366C21.0103 20.4866 21.2497 20.3424 21.5412 20.3041C21.8326 20.2658 22.1067 20.3379 22.3634 20.5203L24.8289 22.3243C25.0857 22.5067 25.2337 22.7399 25.2731 23.0236C25.3124 23.3074 25.2384 23.5743 25.051 23.8243C24.8636 24.0743 24.6242 24.2184 24.3328 24.2567C24.0413 24.2951 23.7672 24.223 23.5105 24.0405L21.045 22.2366C20.7882 22.0541 20.6402 21.821 20.6008 21.5373C20.5615 21.2535 20.6355 20.9866 20.8229 20.7366ZM24.7727 5.67586L22.3072 7.47978C22.0505 7.66226 21.7764 7.73434 21.4849 7.69603C21.1935 7.65769 20.9541 7.51352 20.7667 7.26352C20.5793 7.01353 20.5052 6.74665 20.5446 6.4629C20.584 6.17914 20.732 5.94601 20.9888 5.76351L23.4543 3.95962C23.711 3.77714 23.9851 3.70506 24.2765 3.74337C24.5679 3.78168 24.8073 3.92585 24.9948 4.17587C25.1822 4.42587 25.2562 4.69275 25.2169 4.9765C25.1775 5.26026 25.0295 5.49338 24.7727 5.67586ZM4.13251 17.6954H2.64252C1.91583 17.6954 1.29374 17.4435 0.776244 16.9396C0.258748 16.4357 0 15.8299 0 15.1224V12.9325C0 12.2249 0.258748 11.6192 0.776244 11.1153C1.29374 10.6114 1.91583 10.3595 2.64252 10.3595H8.29313L12.8389 7.7125C13.2793 7.4552 13.7235 7.45375 14.1714 7.70816C14.6194 7.96255 14.8433 8.33353 14.8433 8.82112V19.2338C14.8433 19.7213 14.6194 20.0923 14.1714 20.3467C13.7235 20.6011 13.2793 20.5997 12.8389 20.3424L8.29313 17.6954H6.32522V22.1846C6.32522 22.4871 6.22011 22.7406 6.0099 22.9452C5.79966 23.1498 5.53916 23.2521 5.22839 23.2521C4.9176 23.2521 4.65726 23.1498 4.44736 22.9452C4.23746 22.7406 4.13251 22.4871 4.13251 22.1846V17.6954ZM16.8674 18.4674V9.58752C17.441 10.093 17.9029 10.731 18.2534 11.5015C18.6039 12.272 18.7791 13.1151 18.7791 14.0308C18.7791 14.9465 18.6039 15.7884 18.2534 16.5567C17.9029 17.325 17.441 17.9619 16.8674 18.4674Z" fill="white"/>
</svg>
