<svg width="31" height="31" viewBox="0 0 31 31" fill="none" xmlns="http://www.w3.org/2000/svg">
<g opacity="0.8">
<ellipse cx="15.3753" cy="15.5" rx="15.5" ry="15.3747" transform="rotate(90 15.3753 15.5)" fill="white"/>
<path d="M15.3753 30.5C7.16412 30.5 0.500697 23.7881 0.500698 15.5C0.500698 7.21189 7.16413 0.499999 15.3753 0.499999C23.5866 0.5 30.25 7.21189 30.25 15.5C30.25 23.7881 23.5866 30.5 15.3753 30.5Z" stroke="black" stroke-opacity="0.11"/>
</g>
<path d="M20.5964 12.1568C19.6611 12.0638 18.7258 11.9941 17.7847 11.9417C17.7817 11.9416 17.7794 11.9391 17.7794 11.9361C17.7794 11.9358 17.7794 11.9355 17.7793 11.9351L17.6513 11.179C17.564 10.6435 17.436 9.84033 16.0741 9.84033H14.5492C13.193 9.84033 13.065 10.6086 12.9719 11.1732L12.9012 11.6042C12.871 11.788 12.718 11.9265 12.5322 11.9388C12.0967 11.9674 11.6613 11.9982 11.2258 12.0404L10.0385 12.1568C9.79403 12.1801 9.61943 12.3954 9.64271 12.634C9.66599 12.8727 9.87552 13.0473 10.12 13.024L11.3073 12.9076C14.3571 12.6049 17.4302 12.7213 20.5149 13.0298C20.5324 13.0298 20.544 13.0298 20.5615 13.0298C20.7826 13.0298 20.9747 12.861 20.998 12.634C21.0154 12.3954 20.8408 12.1801 20.5964 12.1568Z" fill="#697176"/>
<path d="M19.5253 13.8505C19.3856 13.705 19.1935 13.6235 18.9956 13.6235H11.6389C11.441 13.6235 11.2431 13.705 11.1092 13.8505C10.9754 13.996 10.8997 14.1939 10.9113 14.3976L11.2722 20.3692C11.3362 21.2539 11.4177 22.3597 13.449 22.3597H17.1855C19.2168 22.3597 19.2983 21.2597 19.3623 20.3692L19.7232 14.4034C19.7348 14.1939 19.6591 13.996 19.5253 13.8505Z" fill="#697176"/>
</svg>
