<svg width="33" height="33" viewBox="0 0 33 33" fill="none" xmlns="http://www.w3.org/2000/svg">
<path d="M9.31985 28.9092C8.72327 28.9092 8.21515 28.6994 7.79548 28.2797C7.37584 27.86 7.16602 27.3519 7.16602 26.7553V15.063C7.16602 14.4664 7.37584 13.9583 7.79548 13.5386C8.21515 13.119 8.72327 12.9092 9.31985 12.9092H11.166V10.2425C11.166 8.75705 11.6835 7.49679 12.7186 6.46175C13.7536 5.4267 15.0139 4.90918 16.4993 4.90918C17.9848 4.90918 19.2451 5.4267 20.2801 6.46175C21.3152 7.49679 21.8327 8.75705 21.8327 10.2425V12.9092H23.6788C24.2754 12.9092 24.7835 13.119 25.2032 13.5386C25.6229 13.9583 25.8327 14.4664 25.8327 15.063V26.7553C25.8327 27.3519 25.6229 27.86 25.2032 28.2797C24.7835 28.6994 24.2754 28.9092 23.6788 28.9092H9.31985ZM9.31985 27.5758H23.6788C23.9182 27.5758 24.1147 27.4989 24.2686 27.3451C24.4224 27.1912 24.4993 26.9947 24.4993 26.7553V15.063C24.4993 14.8237 24.4224 14.6271 24.2686 14.4733C24.1147 14.3194 23.9182 14.2425 23.6788 14.2425H9.31985C9.08054 14.2425 8.88396 14.3194 8.73012 14.4733C8.57627 14.6271 8.49935 14.8237 8.49935 15.063V26.7553C8.49935 26.9947 8.57627 27.1912 8.73012 27.3451C8.88396 27.4989 9.08054 27.5758 9.31985 27.5758ZM16.4993 22.9092C17.0617 22.9092 17.5357 22.7164 17.9211 22.331C18.3066 21.9455 18.4993 21.4716 18.4993 20.9092C18.4993 20.3468 18.3066 19.8728 17.9211 19.4874C17.5357 19.1019 17.0617 18.9092 16.4993 18.9092C15.9369 18.9092 15.463 19.1019 15.0775 19.4874C14.6921 19.8728 14.4993 20.3468 14.4993 20.9092C14.4993 21.4716 14.6921 21.9455 15.0775 22.331C15.463 22.7164 15.9369 22.9092 16.4993 22.9092ZM12.4993 12.9092H20.4993V10.2425C20.4993 9.1314 20.1105 8.18696 19.3327 7.40918C18.5549 6.6314 17.6105 6.24251 16.4993 6.24251C15.3882 6.24251 14.4438 6.6314 13.666 7.40918C12.8882 8.18696 12.4993 9.1314 12.4993 10.2425V12.9092Z" fill="#4F4F4F"/>
</svg>
