<svg width="98" height="128" viewBox="0 0 98 128" fill="none" xmlns="http://www.w3.org/2000/svg">
<path d="M97.3145 44.2937C93.7172 43.3932 90.9097 40.584 90.0071 36.9874L89.8544 36.3735L89.6998 36.9874C88.799 40.5843 85.9901 43.3932 82.3935 44.2937L81.7793 44.4482L82.3935 44.6028C85.9901 45.5036 88.799 48.3118 89.6998 51.9084L89.8544 52.5219L90.0071 51.9084C90.9097 48.3118 93.7172 45.5036 97.3145 44.6028L97.9287 44.4482L97.3145 44.2937Z" fill="#FFBE1B"/>
<path d="M42.6317 25.7326C40.6008 25.224 39.0158 23.6382 38.5061 21.6078L38.4201 21.2612L38.3327 21.6078C37.8241 23.6382 36.2383 25.224 34.2079 25.7326L33.8613 25.82L34.2079 25.9075C36.2383 26.4161 37.8241 28.0015 38.3327 30.0319L38.4201 30.3781L38.5061 30.0319C39.0158 28.0015 40.6005 26.4161 42.6317 25.9075L42.9786 25.82L42.6317 25.7326Z" fill="#FFBE1B"/>
<path d="M72.2044 10.9393C67.2358 9.69544 63.3584 5.81584 62.1117 0.848016L61.9007 0L61.6873 0.848016C60.4431 5.81584 56.5635 9.69544 51.5961 10.9393L50.748 11.1527L51.5961 11.3661C56.5635 12.6103 60.4431 16.4892 61.6873 21.4563L61.9007 22.304L62.1117 21.4563C63.3584 16.4892 67.2358 12.6103 72.2044 11.3661L73.0527 11.1527L72.2044 10.9393Z" fill="#FFBE1B"/>
<path d="M15.6075 104.92C12.0102 104.02 9.20272 101.21 8.30009 97.6139L8.14734 97L7.9928 97.6139C7.09196 101.211 4.28309 104.02 0.68651 104.92L0.0722656 105.075L0.68651 105.229C4.28309 106.13 7.09196 108.938 7.9928 112.535L8.14734 113.148L8.30009 112.535C9.20272 108.938 12.0102 106.13 15.6075 105.229L16.2217 105.075L15.6075 104.92Z" fill="#5D8EF9"/>
<path d="M83.2343 117.301L84.0723 117.5L83.2343 117.7C78.3352 118.872 74.5112 122.525 73.2805 127.201L73.0707 128L72.863 127.201C71.6333 122.525 67.8075 118.872 62.9066 117.7L62.0723 117.5L62.9066 117.301C67.8075 116.129 71.6336 112.475 72.863 107.799L73.0707 107L73.2805 107.799C74.5112 112.475 78.3352 116.129 83.2343 117.301Z" fill="#330D84"/>
<path d="M67.0546 68.5244C67.0546 68.5244 67.0546 49.8072 67.0546 49.1474C67.0546 40.2294 59.8252 33 50.9072 33C41.9892 33 34.7598 40.2294 34.7598 49.1474C34.7598 49.8072 34.7598 68.5244 34.7598 68.5244" fill="white"/>
<path d="M67.0546 68.5244C67.0546 68.5244 67.0546 49.8072 67.0546 49.1474C67.0546 40.2294 59.8252 33 50.9072 33C41.9892 33 34.7598 40.2294 34.7598 49.1474C34.7598 49.8072 34.7598 68.5244 34.7598 68.5244" stroke="#5932AE" stroke-width="5.2" stroke-miterlimit="10"/>
<path d="M50.907 113C35.0064 113 22.0723 100.066 22.0723 84.1653C22.0723 68.2647 35.0064 55.3306 50.907 55.3306C66.8076 55.3306 79.7417 68.2647 79.7417 84.1653C79.7417 100.066 66.8076 113 50.907 113Z" fill="#FFBE1B"/>
<path d="M50.9073 65.7109C46.013 65.7109 41.3191 67.6552 37.8582 71.1161C34.3974 74.5769 32.4531 79.2708 32.4531 84.1651C32.4531 89.0595 34.3974 93.7534 37.8582 97.2142C41.3191 100.675 46.013 102.619 50.9073 102.619C55.8017 102.619 60.4956 100.675 63.9564 97.2142C67.4173 93.7534 69.3615 89.0595 69.3615 84.1651C69.3615 79.2708 67.4173 74.5769 63.9564 71.1161C60.4956 67.6552 55.8017 65.7109 50.9073 65.7109Z" fill="#5932AE"/>
<path fill-rule="evenodd" clip-rule="evenodd" d="M41.7267 84.98V83.8326H44.0217V84.98C44.0217 88.7771 47.1094 91.8649 50.9064 91.8649C54.7035 91.8649 57.7912 88.7771 57.7912 84.98C57.7912 81.183 54.7035 78.0952 50.9064 78.0952H49.759V82.685L44.0216 76.948L49.759 71.2104V75.8003H50.9064C55.9677 75.8003 60.0863 79.9187 60.0863 84.9802C60.0863 90.0417 55.9679 94.1602 50.9064 94.1602C45.8449 94.1602 41.7266 90.0417 41.7266 84.9802L41.7267 84.98Z" fill="white"/>
</svg>
