<svg width="42" height="42" viewBox="0 0 42 42" fill="none" xmlns="http://www.w3.org/2000/svg">
<path d="M19.9702 29.6827C17.776 29.4022 15.9407 28.4465 14.4644 26.8154C12.9881 25.1843 12.25 23.2458 12.25 21C12.25 18.5695 13.1007 16.5035 14.8021 14.8021C16.5035 13.1007 18.5695 12.25 21 12.25C23.2458 12.25 25.1843 12.9825 26.8154 14.4476C28.4465 15.9126 29.4022 17.7423 29.6827 19.9365L27.7914 19.3812C27.4141 17.8062 26.6014 16.5156 25.3534 15.5094C24.1054 14.5031 22.6543 14 21 14C19.075 14 17.4271 14.6854 16.0562 16.0562C14.6854 17.4271 14 19.075 14 21C14 22.6625 14.5087 24.1208 15.5262 25.375C16.5437 26.6292 17.8287 27.4458 19.3812 27.825L19.9702 29.6827ZM22.0702 36.6961C21.8918 36.732 21.7135 36.75 21.5351 36.75H21C18.8212 36.75 16.7738 36.3367 14.8575 35.5102C12.9413 34.6836 11.2744 33.5618 9.85687 32.1448C8.43937 30.7279 7.31719 29.0616 6.49031 27.1461C5.66344 25.2305 5.25 23.1838 5.25 21.0059C5.25 18.8279 5.66328 16.7803 6.48983 14.8629C7.31641 12.9456 8.43819 11.2778 9.85517 9.85946C11.2721 8.44117 12.9384 7.31836 14.8539 6.49101C16.7695 5.66367 18.8162 5.25 20.9941 5.25C23.1721 5.25 25.2197 5.66344 27.1371 6.49031C29.0544 7.31719 30.7222 8.43937 32.1405 9.85687C33.5588 11.2744 34.6816 12.9412 35.509 14.8575C36.3363 16.7737 36.75 18.8212 36.75 21V21.5183C36.75 21.691 36.732 21.8638 36.6961 22.0365L35 21.525V21C35 17.0917 33.6437 13.7812 30.9312 11.0687C28.2188 8.35625 24.9083 7 21 7C17.0917 7 13.7812 8.35625 11.0687 11.0687C8.35625 13.7812 7 17.0917 7 21C7 24.9083 8.35625 28.2188 11.0687 30.9312C13.7812 33.6437 17.0917 35 21 35H21.525L22.0702 36.6961ZM34.5726 36.3798L26.1827 27.9563L24.5673 32.8462L21 21L32.8462 24.5673L27.9563 26.1827L36.3798 34.5726L34.5726 36.3798Z" fill="black"/>
</svg>
