<svg width="120" height="133" viewBox="0 0 120 133" fill="none" xmlns="http://www.w3.org/2000/svg">
<path d="M40.2187 25.4111H39.252V25.4356C39.5732 25.4218 39.8948 25.4111 40.2187 25.4111Z" fill="#FFBE1B"/>
<path d="M99.0399 25.4333V25.4111H98.1667H40.2188C52.2764 25.4115 62.0504 35.1863 62.0504 47.244V92.0368H119.999V47.244C120 35.4787 110.693 25.8923 99.0399 25.4333Z" fill="#FFBE1B"/>
<path d="M62.0543 92.0368H18.3887V47.244C18.3887 35.1859 28.1635 25.4111 40.2215 25.4111C52.2795 25.4111 62.0543 35.1859 62.0543 47.244V92.0368Z" fill="#FFE37B"/>
<path d="M62.0465 47.874H12.7971C10.359 47.874 8.38281 49.851 8.38281 52.2875V83.2765C8.38281 85.7153 10.3586 87.6915 12.7971 87.6915H62.0465V47.874Z" fill="#5932AE"/>
<path d="M41.1381 71.2311C39.6194 72.5392 37.3722 72.5392 35.8535 71.2311L32.5731 68.4062L9.94336 86.6442C10.7126 87.2961 11.7074 87.6896 12.7943 87.6896H62.0437V82.6112L44.4181 68.4062L41.1381 71.2311Z" fill="#6857E5"/>
<path d="M62.0441 47.874H12.7943C11.7074 47.874 10.7122 48.2679 9.94336 48.9198L35.8535 71.2331C37.3722 72.5412 39.6194 72.5412 41.1381 71.2331L62.0441 53.2294V47.874Z" fill="#8C7BFD"/>
<path d="M41.7055 65.5705C41.7055 67.3476 40.265 68.7885 38.4875 68.7885C36.7104 68.7885 35.2695 67.348 35.2695 65.5705C35.2695 63.7934 36.71 62.3525 38.4875 62.3525C40.2646 62.3529 41.7055 63.7934 41.7055 65.5705Z" fill="#FFBE1B"/>
<path d="M81.4783 92.0371H68.6992V116.72H81.4783V92.0371Z" fill="#8AC9F9"/>
<path d="M81.4773 116.719H89.1602V92.0367H81.4773V116.719Z" fill="#5D8EF9"/>
<path d="M62.0454 87.6904H0V92.0364H62.0454V87.6904Z" fill="#FFBE1B"/>
<path d="M49.665 117.769L50.765 118.045L49.665 118.319C43.2271 119.933 38.2036 124.958 36.5901 131.396L36.3139 132.494L36.0381 131.396C34.4258 124.958 29.3999 119.933 22.9608 118.319L21.8652 118.045L22.9608 117.769C29.3999 116.156 34.4262 111.13 36.0381 104.693L36.3139 103.597L36.5901 104.693C38.2036 111.13 43.2271 116.156 49.665 117.769Z" fill="#330D84"/>
<path d="M22.3686 106.957L23.098 107.14L22.3686 107.322C18.1001 108.392 14.7696 111.724 13.7001 115.992L13.5168 116.72L13.3338 115.992C12.2651 111.723 8.93257 108.392 4.66367 107.322L3.9375 107.14L4.66367 106.957C8.93297 105.887 12.2651 102.555 13.3338 98.288L13.5168 97.561L13.7001 98.288C14.7696 102.555 18.1001 105.887 22.3686 106.957Z" fill="#330D84"/>
<path d="M116.289 109.525L116.915 109.682L116.289 109.838C112.623 110.758 109.762 113.619 108.843 117.285L108.686 117.91L108.529 117.285C107.611 113.619 104.749 110.758 101.083 109.838L100.459 109.682L101.083 109.525C104.75 108.607 107.612 105.745 108.529 102.08L108.686 101.455L108.843 102.08C109.762 105.745 112.623 108.607 116.289 109.525Z" fill="#5D8EF9"/>
<path d="M58.1383 9.63337L58.8858 9.82064L58.1383 10.0075C53.762 11.1047 50.3473 14.5202 49.2509 18.8966L49.0632 19.6429L48.876 18.8966C47.78 14.5202 44.3637 11.1051 39.9869 10.0075L39.2422 9.82064L39.9869 9.63337C44.3637 8.53662 47.7804 5.12071 48.876 0.745527L49.0632 0L49.2509 0.745527C50.3473 5.12071 53.762 8.53701 58.1383 9.63337Z" fill="#FFBE1B"/>
<path d="M34.8282 18.2742L35.2169 18.3718L34.8282 18.469C32.5521 19.0399 30.7762 20.8162 30.2057 23.0923L30.1081 23.4803L30.0105 23.0923C29.4404 20.8162 27.6637 19.0399 25.3872 18.469L25 18.3718L25.3872 18.2742C27.6637 17.7037 29.4404 15.927 30.0105 13.6517L30.1081 13.2642L30.2057 13.6517C30.7762 15.927 32.5521 17.7037 34.8282 18.2742Z" fill="#FFBE1B"/>
<path d="M77.2461 11.7754V25.042L92.4146 18.6922L77.2461 11.7754Z" fill="#330D84"/>
<path d="M75.2723 44.3971C75.9669 44.3971 76.6302 44.5247 77.2477 44.7479V10.8748C77.2477 9.78401 76.3635 8.89941 75.2723 8.89941C74.1811 8.89941 73.2969 9.78401 73.2969 10.8748V44.7479C73.9148 44.5247 74.5777 44.3971 75.2723 44.3971Z" fill="#6857E5"/>
<path d="M75.2709 56.053C78.4893 56.053 81.0984 53.4439 81.0984 50.2255C81.0984 47.007 78.4893 44.3979 75.2709 44.3979C72.0524 44.3979 69.4434 47.007 69.4434 50.2255C69.4434 53.4439 72.0524 56.053 75.2709 56.053Z" fill="#5D8EF9"/>
<path d="M75.2754 52.9897C76.8028 52.9897 78.041 51.7515 78.041 50.2241C78.041 48.6967 76.8028 47.4585 75.2754 47.4585C73.748 47.4585 72.5098 48.6967 72.5098 50.2241C72.5098 51.7515 73.748 52.9897 75.2754 52.9897Z" fill="#8AC9F9"/>
</svg>
