<svg width="33" height="33" viewBox="0 0 33 33" fill="none" xmlns="http://www.w3.org/2000/svg">
<path d="M5.75708 26.9091C5.23422 26.9091 4.78298 26.7193 4.40338 26.3397C4.02378 25.9601 3.83398 25.5089 3.83398 24.986V8.83228C3.83398 8.30941 4.02378 7.85818 4.40338 7.47858C4.78298 7.09898 5.23422 6.90918 5.75708 6.90918H27.2442C27.767 6.90918 28.2183 7.09898 28.5979 7.47858C28.9775 7.85818 29.1673 8.30941 29.1673 8.83228V24.986C29.1673 25.5089 28.9775 25.9601 28.5979 26.3397C28.2183 26.7193 27.767 26.9091 27.2442 26.9091H5.75708ZM16.5006 17.1117L5.34678 9.72965V24.986C5.34678 25.1057 5.38525 25.204 5.46218 25.2809C5.53912 25.3578 5.63742 25.3963 5.75708 25.3963H27.2442C27.3638 25.3963 27.4621 25.3578 27.5391 25.2809C27.616 25.204 27.6545 25.1057 27.6545 24.986V9.72965L16.5006 17.1117ZM16.5006 15.522L27.3545 8.42198H5.68012L16.5006 15.522ZM5.34678 9.72965V8.42198V24.986C5.34678 25.1057 5.38525 25.204 5.46218 25.2809C5.53912 25.3578 5.63742 25.3963 5.75708 25.3963H5.34678V9.72965Z" fill="#4F4F4F"/>
</svg>
