<svg width="42" height="42" viewBox="0 0 42 42" fill="none" xmlns="http://www.w3.org/2000/svg">
<path d="M21 38.5C17.4417 38.5 14.2525 37.5543 11.4323 35.663C8.61206 33.7716 6.49523 31.2274 5.08179 28.0303V33.7885H3.33179V25.0385H12.0818V26.7885H6.47168C7.60247 29.7859 9.49775 32.1955 12.1575 34.0173C14.8173 35.8391 17.7648 36.75 21 36.75C23.0978 36.75 25.0682 36.3736 26.9113 35.6209C28.7545 34.8682 30.3777 33.8294 31.7811 32.5045C33.1844 31.1797 34.3242 29.607 35.2003 27.7863C36.0764 25.9656 36.5818 23.9952 36.7164 21.875H38.4664C38.3542 24.1926 37.8174 26.361 36.8561 28.3803C35.8947 30.3995 34.6344 32.1607 33.0751 33.664C31.5158 35.1672 29.6985 36.349 27.6231 37.2094C25.5478 38.0698 23.3401 38.5 21 38.5ZM20.0981 32.5769V30.4365C18.9068 30.1606 17.8921 29.6877 17.0542 29.018C16.2162 28.3483 15.5481 27.4144 15.05 26.2164L16.5914 25.55C17.076 26.6337 17.7238 27.4688 18.5349 28.0555C19.346 28.6422 20.2552 28.9356 21.2626 28.9356C22.2924 28.9356 23.2565 28.6647 24.1551 28.1228C25.0536 27.581 25.5029 26.6942 25.5029 25.4625C25.5029 24.4821 25.1793 23.7125 24.532 23.1539C23.8847 22.5952 22.6199 21.9692 20.7375 21.276C18.8597 20.5962 17.5253 19.8782 16.7344 19.1221C15.9436 18.366 15.5481 17.3587 15.5481 16.1C15.5481 15.0388 15.9469 14.0589 16.7445 13.1603C17.5421 12.2618 18.6892 11.7003 20.1856 11.476V9.42309H21.902V11.476C22.8174 11.541 23.6716 11.8574 24.4647 12.425C25.2578 12.9926 25.8597 13.6971 26.2703 14.5385L24.7491 15.1375C24.3811 14.5116 23.901 13.995 23.3087 13.5877C22.7164 13.1805 21.976 12.9769 21.0875 12.9769C19.9321 12.9769 19.0061 13.2742 18.3094 13.8687C17.6128 14.4633 17.2645 15.2071 17.2645 16.1C17.2645 16.9929 17.5326 17.6806 18.0688 18.163C18.605 18.6453 19.8379 19.2231 21.7674 19.8961C23.8674 20.6545 25.2898 21.4655 26.0347 22.3293C26.7795 23.1931 27.152 24.2375 27.152 25.4625C27.152 26.2859 26.9893 27.0072 26.664 27.6265C26.3387 28.2457 25.9186 28.7589 25.4037 29.1661C24.8888 29.5733 24.3161 29.8874 23.6856 30.1084C23.0552 30.3294 22.4314 30.4679 21.8145 30.524V32.5769H20.0981ZM3.53369 20.125C3.69076 17.6952 4.26118 15.4651 5.24497 13.4346C6.2288 11.4042 7.51157 9.64854 9.09331 8.16778C10.675 6.68701 12.4868 5.53885 14.5284 4.72329C16.5701 3.90776 18.7273 3.5 21 3.5C24.4911 3.5 27.6803 4.45127 30.5678 6.35381C33.4553 8.25638 35.5722 10.8399 36.9183 14.1043V8.21153H38.6683V16.9615H29.9183V15.2115H35.5284C34.4649 12.3038 32.5977 9.91667 29.9267 8.05C27.2557 6.18333 24.2802 5.25 21 5.25C18.992 5.25 17.0721 5.61514 15.2402 6.34541C13.4083 7.07572 11.7794 8.09207 10.3537 9.39448C8.92785 10.6969 7.76006 12.2584 6.85029 14.0791C5.94053 15.8998 5.41833 17.9151 5.28369 20.125H3.53369Z" fill="black"/>
</svg>
