<svg width="46" height="46" viewBox="0 0 46 46" fill="none" xmlns="http://www.w3.org/2000/svg">
<g clip-path="url(#clip0_22705_279518)">
<path d="M32.5833 28.75C25.484 28.75 21.4705 33.0663 19.711 35.6404C18.9903 36.6946 18.9903 38.0573 19.711 39.1115C21.4705 41.6856 25.484 46.0019 32.5833 46.0019C39.6827 46.0019 43.6962 41.6856 45.4557 39.1115C46.1763 38.0573 46.1763 36.6946 45.4557 35.6404C43.6962 33.0663 39.6827 28.75 32.5833 28.75ZM43.8744 38.0286C42.3277 40.2903 38.8029 44.0833 32.5833 44.0833C26.3638 44.0833 22.839 40.2903 21.2922 38.0286C21.0124 37.6184 21.0124 37.1316 21.2922 36.7214C22.8409 34.4598 26.3638 30.6667 32.5833 30.6667C38.8029 30.6667 42.3277 34.4598 43.8744 36.7214C44.1543 37.1316 44.1543 37.6184 43.8744 38.0286ZM32.5833 33.5417C30.4692 33.5417 28.75 35.2609 28.75 37.375C28.75 39.4891 30.4692 41.2083 32.5833 41.2083C34.6974 41.2083 36.4167 39.4891 36.4167 37.375C36.4167 35.2609 34.6974 33.5417 32.5833 33.5417ZM32.5833 39.2917C31.5273 39.2917 30.6667 38.433 30.6667 37.375C30.6667 36.317 31.5273 35.4583 32.5833 35.4583C33.6394 35.4583 34.5 36.317 34.5 37.375C34.5 38.433 33.6394 39.2917 32.5833 39.2917ZM11.5 10.5417C11.5 11.5997 10.6413 12.4583 9.58333 12.4583C8.52533 12.4583 7.66667 11.5997 7.66667 10.5417C7.66667 9.48367 8.52533 8.625 9.58333 8.625C10.6413 8.625 11.5 9.48367 11.5 10.5417ZM11.5 31.625C11.5 32.683 10.6413 33.5417 9.58333 33.5417C8.52533 33.5417 7.66667 32.683 7.66667 31.625C7.66667 30.567 8.52533 29.7083 9.58333 29.7083C10.6413 29.7083 11.5 30.567 11.5 31.625ZM11.5 21.0833C11.5 22.1413 10.6413 23 9.58333 23C8.52533 23 7.66667 22.1413 7.66667 21.0833C7.66667 20.0253 8.52533 19.1667 9.58333 19.1667C10.6413 19.1667 11.5 20.0253 11.5 21.0833ZM17.25 10.5417C17.25 10.0127 17.6793 9.58333 18.2083 9.58333H37.375C37.904 9.58333 38.3333 10.0127 38.3333 10.5417C38.3333 11.0707 37.904 11.5 37.375 11.5H18.2083C17.6793 11.5 17.25 11.0707 17.25 10.5417ZM37.375 22.0417H18.2083C17.6793 22.0417 17.25 21.6123 17.25 21.0833C17.25 20.5543 17.6793 20.125 18.2083 20.125H37.375C37.904 20.125 38.3333 20.5543 38.3333 21.0833C38.3333 21.6123 37.904 22.0417 37.375 22.0417ZM46 8.625V27.7917C46 28.3207 45.5707 28.75 45.0417 28.75C44.5127 28.75 44.0833 28.3207 44.0833 27.7917V8.625C44.0833 4.92583 41.0742 1.91667 37.375 1.91667H8.625C4.92583 1.91667 1.91667 4.92583 1.91667 8.625V33.5417C1.91667 37.2408 4.92583 40.25 8.625 40.25H15.3333C15.8623 40.25 16.2917 40.6793 16.2917 41.2083C16.2917 41.7373 15.8623 42.1667 15.3333 42.1667H8.625C3.86975 42.1667 0 38.2969 0 33.5417V8.625C0 3.86975 3.86975 0 8.625 0H37.375C42.1302 0 46 3.86975 46 8.625Z" fill="black"/>
</g>
<defs>
<clipPath id="clip0_22705_279518">
<rect width="46" height="46" fill="white"/>
</clipPath>
</defs>
</svg>
