<svg width="190" height="190" viewBox="0 0 190 190" fill="none" xmlns="http://www.w3.org/2000/svg">
<g clip-path="url(#clip0_24973_4319)">
<path d="M181.403 167.347H3V169H181.403V167.347Z" fill="#1A3A49"/>
<path d="M65.1386 28.7307V110.701C65.1386 112.755 66.8096 114.418 68.8675 114.418H152.697C154.755 114.418 156.426 112.755 156.426 110.701V28.7307H65.1386Z" fill="#E8E9FD"/>
<path d="M156.426 31.9695V28.6007C156.426 26.5462 154.755 24.8831 152.697 24.8831H68.8682C66.8103 24.8831 65.1393 26.5462 65.1393 28.6007V31.9695H156.427H156.426Z" fill="#A7ABC6"/>
<path d="M70.2593 29.5842C70.6641 29.1813 70.6641 28.5281 70.2593 28.1252C69.8545 27.7224 69.1982 27.7224 68.7934 28.1252C68.3886 28.5281 68.3886 29.1813 68.7934 29.5842C69.1982 29.9871 69.8545 29.9871 70.2593 29.5842Z" fill="white"/>
<path d="M73.6957 29.5842C74.1005 29.1813 74.1005 28.5281 73.6957 28.1252C73.2909 27.7224 72.6346 27.7224 72.2298 28.1252C71.825 28.5281 71.825 29.1813 72.2298 29.5842C72.6346 29.9871 73.2909 29.9871 73.6957 29.5842Z" fill="white"/>
<path d="M76.7958 29.8078C77.3247 29.5898 77.5758 28.9863 77.3568 28.4599C77.1377 27.9335 76.5313 27.6835 76.0025 27.9016C75.4736 28.1196 75.2224 28.7231 75.4415 29.2495C75.6605 29.7759 76.2669 30.0259 76.7958 29.8078Z" fill="white"/>
<path d="M143.762 40.3938H75.2282V44.568H143.762V40.3938Z" fill="#D2D4E9"/>
<path d="M106.597 51.3789H73.0565V79.7864H106.597V51.3789Z" fill="#37C092"/>
<path d="M102.661 74.8952H76.8289L83.8825 65.5816L87.7159 70.6414L93.5784 62.9092L102.661 74.8952Z" fill="white"/>
<path d="M90.8419 62.0702C91.1329 60.8431 90.3693 59.6137 89.1365 59.324C87.9036 59.0344 86.6683 59.7944 86.3773 61.0214C86.0863 62.2485 86.8499 63.4779 88.0827 63.7675C89.3156 64.0572 90.5509 63.2972 90.8419 62.0702Z" fill="white"/>
<path d="M131.264 53.1418H111.948V59.2661H131.264V53.1418Z" fill="#D2D4E9"/>
<path d="M150.676 63.1746H111.948V64.4703H150.676V63.1746Z" fill="#D2D4E9"/>
<path d="M150.676 67.6926H111.948V68.9884H150.676V67.6926Z" fill="#D2D4E9"/>
<path d="M150.676 72.21H111.948V73.5058H150.676V72.21Z" fill="#D2D4E9"/>
<path d="M124.407 76.728H111.948V78.0238H124.407V76.728Z" fill="#D2D4E9"/>
<path d="M140.438 76.728H134.451V78.0238H140.438V76.728Z" fill="#D2D4E9"/>
<path d="M150.676 76.728H146.909V78.0238H150.676V76.728Z" fill="#D2D4E9"/>
<path d="M150.676 87.0256H73.0565V90.0642H150.676V87.0256Z" fill="#D2D4E9"/>
<path d="M97.8156 96.4768H87.0429V107.199H97.8156V96.4768Z" fill="#D2D4E9"/>
<path d="M115.716 96.0264H104.943V106.748H115.716V96.0264Z" fill="#D2D4E9"/>
<path d="M134.522 96.4768H123.749V107.199H134.522V96.4768Z" fill="#D2D4E9"/>
<path d="M64.1753 126.886C62.9199 135.611 59.7209 132.165 59.7209 132.165L49.8261 118.459L47.1003 105.159L45.2397 91.1604C50.0728 92.8863 65.426 118.19 64.1753 126.886Z" fill="#3141CF"/>
<path d="M50.4999 108.814L56.7171 123.851L45.5982 115.68L50.4999 108.814Z" fill="#7585C6"/>
<path d="M37.0158 167.429L36.8854 166.814L31.1639 139.785H53.0424L53.8745 167.429H37.0158Z" fill="#3A6DC9"/>
<path d="M31.1639 139.785L36.8859 166.814L39.5655 139.785H31.1639Z" fill="#1C5AB5"/>
<path d="M15.147 167.429V139.785H39.5655L33.6276 167.429H15.147Z" fill="#3A6DC9"/>
<path d="M52.8447 141.918H16.1946C16.1946 141.918 16.9247 127.128 16.6132 123.62C15.8928 115.459 10.8184 101.642 13.2288 96.4248C14.0305 94.6825 21.7883 90.4484 21.7883 90.4484L26.7641 89.1358L37.2799 88.6758L42.3937 89.9433C42.3937 89.9433 46.7655 92.171 48.602 94.883C51.7781 99.5645 51.9474 115.341 51.9525 123.452C51.9563 126.466 52.5357 136.68 52.8451 141.918L52.8447 141.918Z" fill="#EAE8FE"/>
<path d="M14.1968 124.629C14.485 127.888 14.4461 136.736 14.3492 144.242C14.2616 150.736 14.1321 156.224 14.1321 156.224H18.3434C26.4717 156.224 37.5622 156.65 37.8615 147.718C38.1603 138.797 36.3475 115.803 36.1486 112.056C35.399 97.9341 26.7637 89.137 26.7637 89.137L21.7871 90.4479C21.7871 90.4479 12.2304 94.2493 11.3978 97.0157C10.5395 99.8597 10.4971 103 10.8501 106.231C11.5337 112.56 13.7173 119.225 14.1968 124.629Z" fill="#5474F1"/>
<path d="M41.1866 118.191L43.3909 142.36C43.9445 150.055 47.6933 156.224 55.4439 156.224C54.9521 149.912 52.5518 127.627 52.5467 123.516C52.5417 115.405 52.3013 100.521 48.7446 94.4045C47.4046 92.1002 44.576 90.5837 42.3933 89.9434C41.4938 89.6792 38.7533 89.041 38.7533 89.041L41.1861 118.191H41.1866Z" fill="#5474F1"/>
<path d="M14.1968 124.629C14.485 127.889 14.4461 136.736 14.3492 144.242L35.8709 137.854L36.2594 128.406L20.3907 124.352C20.3907 124.352 21.2753 110.173 21.1196 107.908C20.8495 103.985 17.3615 99.1702 17.3615 99.1702L10.8501 106.231C11.5337 112.561 13.7173 119.225 14.1968 124.629V124.629Z" fill="#3141CF"/>
<path d="M35.0561 129.725C35.0561 129.725 42.8004 125.698 44.0791 126.501C45.3412 127.299 41.8595 129.812 41.8595 129.812" fill="#FDD1C4"/>
<path d="M40.7756 146.75H58.3293C59.0674 146.75 59.704 146.235 59.8547 145.516L64.7344 122.248C64.9363 121.285 64.1977 120.38 63.209 120.38H45.6553C44.9176 120.38 44.2806 120.895 44.1299 121.614L39.2502 144.882C39.0483 145.846 39.7869 146.75 40.7756 146.75Z" fill="#070D2B"/>
<path d="M41.8591 129.812C42.7551 129.706 49.4206 128.935 48.9825 130.599C48.8242 131.203 47.5058 131.901 46.9174 132.049C48.7366 132.094 51.318 132.639 51.15 133.467C50.9164 134.618 48.707 134.509 47.9366 134.436C48.7197 134.538 50.9655 134.928 50.5041 136.006C50.2235 136.663 48.3857 136.578 47.5358 136.609C48.1555 136.808 49.7473 138.19 48.5876 138.707C46.8087 139.504 35.3698 137.658 35.3698 137.658L35.0565 129.725" fill="#FDD1C4"/>
<path d="M13.0333 95.1467C13.0333 95.1467 21.12 98.181 20.13 113.361C19.9146 116.664 17.6645 126.287 17.6645 126.287L36.2599 128.406L35.8713 137.854C26.7921 138.209 11.7716 140.808 7.09077 136.079C3.8808 132.836 6.38012 98.5572 13.0337 95.1467H13.0333Z" fill="#3141CF"/>
<path d="M36.2264 94.6417C31.3425 94.4302 26.7709 89.285 26.7641 89.1359C26.5834 85.5805 25.9896 77.5766 25.1748 75.0351C24.9941 74.4753 25.5227 73.9495 26.0848 74.126L38.0803 77.8479C38.4485 77.9633 38.6631 78.3466 38.5645 78.7199C38.4147 79.3003 38.3055 79.8804 38.2305 80.4432C38.2035 80.6467 38.1827 80.8468 38.1624 81.0473C38.0092 82.7471 38.1489 84.2939 38.3364 85.4271C38.3774 85.6748 38.4282 86.1058 38.4896 86.6012V86.6045C38.636 87.8767 38.6872 88.6375 38.7418 88.8237C38.7689 88.9151 38.9861 94.7614 36.226 94.6417H36.2264Z" fill="#FEC3BD"/>
<path d="M38.49 86.6012V86.6046C38.49 86.6046 31.8436 84.1668 30.6699 82.0718C29.1212 79.3071 37.191 80.6467 37.191 80.6467C37.191 80.6467 37.6139 80.8199 38.1624 81.0469C38.0092 82.7467 38.1489 84.2936 38.3364 85.4267C38.3774 85.6744 38.4282 86.1054 38.4896 86.6008L38.49 86.6012Z" fill="#F18B89"/>
<path d="M46.884 59.0336C47.8554 60.8577 47.364 63.2492 45.9626 64.7707C44.5612 66.2927 42.4047 66.9916 40.332 66.9187C39.4406 66.8876 38.4824 66.687 37.8932 66.0206C37.3722 65.4308 37.2469 64.6027 37.144 63.8242C36.9836 62.6118 36.8334 61.324 37.343 60.2115C37.9656 58.8529 39.4707 58.0652 40.9605 57.8874C42.4504 57.7096 43.9483 58.0407 45.4119 58.3693" fill="#0E1738"/>
<path d="M39.8897 84.39C33.292 86.1597 27.4007 79.5476 25.7885 76.7959V76.7926C25.5041 76.3052 25.3107 75.926 25.2099 75.7188C25.1541 75.6038 25.0707 75.5086 24.964 75.4378C24.112 74.8699 20.2519 72.1292 21.2207 69.6986C21.8535 68.1163 22.9349 67.9289 23.7315 68.0506C24.1996 68.1222 24.6076 67.7124 24.5446 67.2452C22.8287 54.5502 36.8778 55.1003 40.7434 60.8298C40.914 61.0809 41.0875 61.3897 41.2615 61.7495C43.7773 66.8694 46.978 82.4888 39.8901 84.3904L39.8897 84.39Z" fill="#FEC3BD"/>
<path d="M26.6609 84.9722C26.5999 84.8926 26.5394 84.8125 26.4793 84.7321C24.2957 81.8262 22.281 78.7692 20.5122 75.5962C19.3529 73.5165 18.2757 71.3584 17.5448 69.0887C16.6606 66.3437 16.7469 63.5205 16.6665 60.6648C16.6441 59.8694 16.6238 59.0564 16.8654 58.2977C17.1067 57.539 17.6629 56.8317 18.4353 56.627C19.1019 56.4505 19.8045 56.6666 20.494 56.6586C21.1835 56.6506 21.994 56.2449 21.9906 55.5583C21.9877 55.0064 21.4603 54.5987 21.3147 54.0662C21.1649 53.5185 21.4595 52.9242 21.9039 52.5686C22.3487 52.2135 22.9167 52.0534 23.475 51.9363C25.932 51.4203 28.5287 51.5791 30.9036 52.3908C31.7577 52.6828 32.6144 53.0623 33.5167 53.032C34.4052 53.0021 35.2237 52.5779 36.0419 52.232C38.2238 51.3095 40.6219 50.8975 42.9884 51.0382C45.1224 51.1654 50.5875 54.6433 49.1307 58.8673C48.3586 61.1054 47.5054 62.5103 45.1334 62.6708C42.7615 62.8313 40.4366 62.0633 38.1844 61.3059C38.1226 62.7369 36.6412 63.777 35.2055 63.8747C33.7699 63.9725 32.3883 63.3785 31.0733 62.7972C31.4017 63.7193 31.0652 64.8352 30.281 65.4246C29.6897 65.869 28.9185 65.9688 28.2125 65.7885C27.6805 65.6529 26.9457 65.4511 26.9199 66.326C26.9199 66.3315 26.8124 69.9653 26.8124 69.9653C26.8018 70.3217 26.5326 70.6174 26.1775 70.6629C25.8402 70.7059 25.5181 70.5112 25.4008 70.1936L24.8375 68.6657C24.768 68.4778 24.625 68.3245 24.4392 68.2487C23.759 67.9719 22.0783 67.5544 21.2207 69.6986C20.2519 72.1293 24.112 74.87 24.964 75.4379C25.0707 75.509 25.1541 75.6042 25.2099 75.7188C25.3107 75.9261 25.5041 76.3052 25.7885 76.796L26.4069 79.2035C26.583 79.8897 26.6609 84.9718 26.6609 84.9718V84.9722Z" fill="#0E1738"/>
<path d="M34.2974 72.0192C34.7425 71.9989 35.0786 71.4438 35.048 70.7794C35.0175 70.1149 34.6319 69.5927 34.1868 69.613C33.7417 69.6332 33.4057 70.1883 33.4363 70.8528C33.4668 71.5172 33.8524 72.0395 34.2974 72.0192Z" fill="#0E1738"/>
<path d="M33.0186 69.0128C32.9576 69.0128 32.8971 68.9862 32.856 68.9348C32.7845 68.8455 32.7993 68.7154 32.8891 68.6442C34.4458 67.4086 35.4222 68.2549 35.4629 68.2916C35.5479 68.3682 35.5547 68.4988 35.4777 68.5835C35.4011 68.6682 35.2707 68.6749 35.1856 68.5995C35.1509 68.5696 34.4136 67.9634 33.1477 68.9673C33.1096 68.9976 33.0639 69.0123 33.0186 69.0123V69.0128Z" fill="#0E1738"/>
<path d="M41.1145 72.0199C41.5595 71.9997 41.8956 71.4446 41.865 70.7801C41.8345 70.1156 41.4489 69.5934 41.0038 69.6137C40.5588 69.634 40.2227 70.189 40.2533 70.8535C40.2838 71.518 40.6694 72.0402 41.1145 72.0199Z" fill="#0E1738"/>
<path d="M39.836 69.0128C39.775 69.0128 39.7145 68.9862 39.6734 68.9348C39.6019 68.8455 39.6167 68.7154 39.7064 68.6442C41.2632 67.4086 42.2396 68.2549 42.2803 68.2916C42.3653 68.3682 42.3721 68.4988 42.2951 68.5835C42.2189 68.6682 42.0881 68.6749 42.003 68.5995C41.9683 68.5696 41.2306 67.9634 39.965 68.9673C39.927 68.9976 39.8812 69.0123 39.836 69.0123V69.0128Z" fill="#0E1738"/>
<path d="M39.0398 77.1001C38.9827 77.1001 38.9255 77.0765 38.8845 77.031C38.8083 76.9459 38.8159 76.8149 38.9014 76.7391C39.1342 76.5331 39.2671 76.2592 39.2756 75.969C39.284 75.6855 39.1727 75.4138 38.9619 75.2036C38.8697 75.1113 38.7596 75.0275 38.6432 74.939C38.5662 74.88 38.4887 74.8211 38.4159 74.7596C37.9021 74.3252 37.5567 73.7153 37.4166 72.9962C37.2939 72.3672 37.3328 71.7358 37.3701 71.1258C37.3773 71.0116 37.4776 70.9253 37.5897 70.932C37.7044 70.9392 37.7912 71.0369 37.7844 71.1506C37.7489 71.7354 37.7116 72.3399 37.8242 72.9174C37.9461 73.5434 38.2437 74.0712 38.6851 74.4445C38.7528 74.5017 38.8244 74.5561 38.8959 74.6109C39.0182 74.704 39.1444 74.8 39.2561 74.9116C39.5486 75.2031 39.7026 75.5831 39.6908 75.9812C39.6785 76.3865 39.4961 76.7656 39.1774 77.0478C39.138 77.0828 39.0885 77.1001 39.0394 77.1001H39.0398Z" fill="#F18B89"/>
<path d="M37.0281 80.4336C35.9928 80.4336 34.9672 79.8931 34.3912 79.0363C34.3273 78.9415 34.3531 78.813 34.4483 78.7494C34.5436 78.6858 34.6722 78.7111 34.7361 78.8063C35.2538 79.5772 36.1888 80.0536 37.122 80.0182C37.2359 80.0149 37.3328 80.1029 37.3371 80.2171C37.3413 80.3312 37.252 80.4269 37.1373 80.4315C37.1009 80.4328 37.0641 80.4336 37.0277 80.4336H37.0281Z" fill="#F18B89"/>
<path d="M61.5507 123.817C61.7894 123.592 62.1187 123.46 62.4776 123.473L64.5693 123.601C65.2872 123.627 65.8476 124.226 65.8217 124.94C65.7917 125.652 65.1898 126.209 64.4762 126.187C65.1898 126.209 65.7544 126.811 65.7274 127.519C65.7015 128.233 65.0997 128.791 64.3861 128.768C65.0997 128.791 65.6643 129.392 65.6342 130.104C65.6114 130.814 65.0095 131.372 64.2959 131.349C65.0095 131.372 65.5699 131.971 65.5441 132.685C65.5212 133.396 64.9164 133.958 64.2015 133.928L62.1098 133.799C61.3962 133.777 60.8358 133.177 60.8658 132.466C60.876 132.113 61.0313 131.792 61.2772 131.565C61.516 131.34 61.8453 131.208 62.2042 131.221C61.4863 131.195 60.9331 130.595 60.956 129.885C60.9687 129.527 61.1245 129.207 61.3674 128.984C61.6065 128.759 61.9354 128.627 62.2943 128.639L61.3721 128.603C60.6584 128.58 60.0981 127.981 60.1239 127.266C60.1378 126.916 60.2936 126.596 60.5395 126.369C60.7782 126.143 61.1033 126.009 61.4622 126.022L62.387 126.054C61.6692 126.029 61.113 125.433 61.1388 124.718C61.149 124.365 61.3086 124.048 61.5502 123.818L61.5507 123.817Z" fill="#FEC3BD"/>
<path d="M173.921 86.3357C180.04 86.3357 185 81.3988 185 75.3088C185 69.2189 180.04 64.282 173.921 64.282C167.802 64.282 162.842 69.2189 162.842 75.3088C162.842 81.3988 167.802 86.3357 173.921 86.3357Z" fill="#F9DAE0"/>
<path d="M45.5982 44.2741C51.717 44.2741 56.6773 39.3373 56.6773 33.2473C56.6773 27.1573 51.717 22.2205 45.5982 22.2205C39.4793 22.2205 34.519 27.1573 34.519 33.2473C34.519 39.3373 39.4793 44.2741 45.5982 44.2741Z" fill="#F9DAE0"/>
<path d="M179.964 79.8108H167.878C167.649 79.8108 167.463 79.6259 167.463 79.3976V71.2155C167.463 70.9872 167.649 70.8022 167.878 70.8022H179.964C180.194 70.8022 180.379 70.9872 180.379 71.2155V79.3976C180.379 79.6259 180.194 79.8108 179.964 79.8108ZM168.293 78.9843H179.549V71.6292H168.293V78.9843Z" fill="white"/>
<path d="M173.923 76.7379C173.828 76.7379 173.732 76.705 173.655 76.6397L167.609 71.5332C167.477 71.4212 167.429 71.2383 167.488 71.0753C167.548 70.9127 167.704 70.8044 167.878 70.8044H179.96C180.134 70.8044 180.29 70.9127 180.35 71.0753C180.41 71.2379 180.362 71.4207 180.229 71.5328L174.192 76.6397C174.115 76.705 174.019 76.7379 173.924 76.7379H173.923ZM169.009 71.6314L173.923 75.7824L178.83 71.6314H169.009Z" fill="white"/>
<path d="M179.959 79.8154H167.878C167.704 79.8154 167.548 79.7076 167.488 79.5449C167.428 79.3823 167.476 79.1999 167.608 79.0875L172.443 74.9865C172.598 74.8551 172.827 74.8551 172.982 74.9865L173.923 75.7827L174.857 74.9954C175.012 74.8644 175.239 74.8644 175.394 74.9954L180.229 79.087C180.361 79.1991 180.409 79.3819 180.35 79.5445C180.29 79.7071 180.134 79.8154 179.96 79.8154H179.959ZM169.006 78.9885H178.83L175.125 75.8522L174.192 76.6395C174.037 76.7705 173.809 76.7705 173.654 76.6395L172.713 75.8438L169.006 78.9885Z" fill="white"/>
<path d="M169.618 51.6401C169.484 51.6844 169.333 51.6688 169.164 51.5997H169.162C169.062 51.5378 168.956 51.4792 168.847 51.4207C167.48 50.4606 165.308 46.735 163.19 41.7406C162.645 40.4612 162.104 39.101 161.584 37.6809C161.003 36.1008 160.488 34.5619 160.044 33.1069C158.615 28.4192 157.93 24.5882 158.225 22.9129V22.9108C158.312 22.4154 158.484 22.11 158.747 22.0245C160.184 21.556 163.781 27.8037 166.784 35.9833C169.787 44.1607 171.053 51.1696 169.619 51.6397L169.618 51.6401Z" fill="#06112D"/>
<path d="M168.847 51.4207C161.834 47.7246 144.45 50.5162 144.45 50.5162L140.561 40.511C157.802 32.4999 158.128 23.1193 158.224 22.9133C157.838 25.1093 159.135 31.0053 161.583 37.6809C164.142 44.6456 167.129 50.2155 168.847 51.4207Z" fill="#0C8FF9"/>
<path d="M144.45 50.5163L136.783 53.5902C136.381 53.7583 135.97 53.8745 135.557 53.9415C133.237 54.3181 130.864 53.1525 129.798 50.9573C128.435 48.1454 129.742 44.7724 132.649 43.6022L140.561 40.511L144.45 50.5163Z" fill="#FCC283"/>
<path d="M135.557 53.9414L138.695 57.3649L144.102 52.9611L142.702 51.2175L135.557 53.9414Z" fill="#06112D"/>
<path d="M151.75 63.601L149.008 66.2574C148.592 66.6601 147.922 66.6416 147.53 66.2132L139.078 57.0542L143.87 53.1504L151.808 62.1889C152.171 62.5996 152.145 63.2197 151.75 63.601H151.75Z" fill="#0C8FF9"/>
<path d="M165.901 36.7828C166.249 38.9043 165.081 40.9204 163.189 41.7406C162.644 40.4612 162.104 39.101 161.583 37.6809C161.003 36.1008 160.487 34.562 160.044 33.1069C160.22 33.0538 160.404 33.0126 160.59 32.9822C163.112 32.5728 165.489 34.273 165.901 36.7824V36.7828Z" fill="#FCC283"/>
<path d="M50.248 34.0905L45.0962 37.7053C44.4092 38.1872 43.4616 37.6986 43.4616 36.8615V29.6315C43.4616 28.7949 44.4092 28.3058 45.0962 28.7877L50.248 32.4025C50.8343 32.8136 50.8343 33.6785 50.248 34.0896V34.0905Z" fill="white"/>
<path d="M139.357 141.81C139.357 141.81 131.669 140.266 130.689 135.232C129.81 130.718 137.194 125.137 137.194 125.137C147.159 136.091 139.357 141.81 139.357 141.81Z" fill="#37C092"/>
<path d="M137.513 134.911C138.262 136.489 138.715 138.19 139.091 139.893C139.456 141.602 139.664 143.338 139.822 145.076L139.902 146.382L139.941 147.69C139.974 148.562 139.96 149.434 139.938 150.306C139.915 151.177 139.847 152.047 139.801 152.916C139.714 153.783 139.627 154.65 139.521 155.513C139.533 154.642 139.579 153.774 139.598 152.906C139.602 152.037 139.634 151.17 139.619 150.302C139.597 148.568 139.566 146.834 139.408 145.108C139.286 143.381 139.074 141.66 138.778 139.953C138.627 139.1 138.46 138.249 138.246 137.409C138.05 136.564 137.811 135.728 137.512 134.911H137.513Z" fill="#238A6F"/>
<path d="M145.623 153.976L143.653 167.429H132.126L130.156 153.976H145.623Z" fill="#FCC283"/>
<path d="M145.212 156.782L145.623 153.976H130.156L130.567 156.782H145.212Z" fill="#FE8B70"/>
<path d="M138.845 150.862C138.845 150.862 136.439 140.715 152.342 136.16C152.342 136.16 154.501 145.925 150.605 149.731C146.26 153.976 138.845 150.862 138.845 150.862Z" fill="#37C092"/>
<path d="M145.623 144.839C145.153 145.074 144.692 145.317 144.253 145.6C143.806 145.865 143.375 146.157 142.959 146.464C142.129 147.083 141.352 147.766 140.666 148.532C139.962 149.282 139.395 150.146 138.918 151.054L138.579 151.747L138.318 152.476C138.274 152.597 138.22 152.717 138.184 152.841L138.089 153.218C138.027 153.47 137.961 153.722 137.89 153.976C137.984 152.94 138.17 151.879 138.629 150.918C139.053 149.947 139.636 149.038 140.358 148.256C141.074 147.471 141.886 146.774 142.778 146.204C143.669 145.634 144.616 145.148 145.623 144.839H145.623Z" fill="#238A6F"/>
<path d="M134.095 144.839C134.798 145.313 135.401 145.938 135.892 146.638C136.387 147.336 136.78 148.112 137.032 148.933C137.275 149.755 137.44 150.608 137.416 151.465C137.44 151.892 137.367 152.316 137.327 152.737C137.259 153.156 137.153 153.569 137.05 153.975C137.06 153.551 137.126 153.138 137.124 152.72C137.115 152.303 137.144 151.888 137.092 151.477C137.051 150.651 136.874 149.841 136.636 149.058C136.403 148.27 136.044 147.523 135.622 146.813C135.192 146.108 134.694 145.434 134.095 144.838V144.839Z" fill="#238A6F"/>
<path d="M135.195 145.904C135.195 145.904 132.936 137.428 120.945 138.581C120.945 138.581 123.885 149.291 128.07 150.516C132.994 151.958 135.195 145.904 135.195 145.904Z" fill="#37C092"/>
<path d="M167.304 129.671L159.82 125.205L167.305 120.743L167.731 121.453L161.436 125.206L167.732 128.962L167.304 129.671Z" fill="#F9DAE0"/>
<path d="M167.379 122.931C168.396 122.931 169.221 122.11 169.221 121.098C169.221 120.085 168.396 119.265 167.379 119.265C166.362 119.265 165.537 120.085 165.537 121.098C165.537 122.11 166.362 122.931 167.379 122.931Z" fill="#F9DAE0"/>
<path d="M161.418 126.061C162.137 125.345 162.137 124.184 161.418 123.468C160.698 122.752 159.532 122.752 158.813 123.468C158.093 124.184 158.093 125.345 158.813 126.061C159.532 126.777 160.698 126.777 161.418 126.061Z" fill="#F9DAE0"/>
<path d="M166.962 130.922C167.979 130.922 168.804 130.101 168.804 129.088C168.804 128.076 167.979 127.255 166.962 127.255C165.945 127.255 165.12 128.076 165.12 129.088C165.12 130.101 165.945 130.922 166.962 130.922Z" fill="#F9DAE0"/>
</g>
<defs>
<clipPath id="clip0_24973_4319">
<rect width="182" height="147" fill="white" transform="translate(3 22)"/>
</clipPath>
</defs>
</svg>
