<svg width="21" height="20" viewBox="0 0 21 20" fill="none" xmlns="http://www.w3.org/2000/svg">
<path d="M10.5332 17.4518C10.1988 17.4518 9.90311 17.3636 9.64616 17.1873C9.38923 17.0111 9.20948 16.7798 9.10691 16.4934H8.86652C8.52571 16.4934 8.23218 16.3703 7.98593 16.124C7.73967 15.8778 7.61654 15.5843 7.61654 15.2435V12.5095C6.77573 11.9999 6.11414 11.3167 5.63177 10.4598C5.14939 9.60298 4.9082 8.68579 4.9082 7.70823C4.9082 6.13987 5.45361 4.81028 6.54441 3.71946C7.63523 2.62866 8.96482 2.08325 10.5332 2.08325C12.1015 2.08325 13.4311 2.62866 14.522 3.71946C15.6128 4.81028 16.1582 6.13987 16.1582 7.70823C16.1582 8.70288 15.917 9.62436 15.4346 10.4726C14.9522 11.3209 14.2906 11.9999 13.4498 12.5095V15.2435C13.4498 15.5843 13.3267 15.8778 13.0804 16.124C12.8342 16.3703 12.5407 16.4934 12.1998 16.4934H11.9595C11.8569 16.7798 11.6771 17.0111 11.4202 17.1873C11.1633 17.3636 10.8676 17.4518 10.5332 17.4518ZM8.86652 15.2435H12.1998V14.4614H8.86652V15.2435ZM8.86652 13.7242H12.1998V12.9165H8.86652V13.7242ZM11.03 11.6666V9.24027L12.4659 7.80438C12.5642 7.70609 12.6146 7.59097 12.6173 7.45902C12.62 7.32708 12.5695 7.20929 12.4659 7.10567C12.3622 7.00203 12.2458 6.95021 12.1165 6.95021C11.9873 6.95021 11.8708 7.00203 11.7672 7.10567L10.5332 8.33965L9.2992 7.10567C9.20091 7.00738 9.08579 6.9569 8.95385 6.95423C8.82192 6.95155 8.70413 7.00203 8.60049 7.10567C8.49687 7.20929 8.44506 7.32575 8.44506 7.45502C8.44506 7.58429 8.49687 7.70074 8.60049 7.80438L10.0364 9.24027V11.6666H11.03Z" fill="#545454"/>
</svg>
