<svg width="24" height="18" viewBox="0 0 24 18" fill="none" xmlns="http://www.w3.org/2000/svg">
<path d="M3.025 17.7499C2.43568 17.7499 1.93685 17.5458 1.52852 17.1374C1.12018 16.7291 0.916016 16.2303 0.916016 15.641V2.35898C0.916016 1.76966 1.12018 1.27083 1.52852 0.8625C1.93685 0.454167 2.43568 0.25 3.025 0.25H20.9736C21.563 0.25 22.0618 0.454167 22.4701 0.8625C22.8785 1.27083 23.0826 1.76966 23.0826 2.35898V15.641C23.0826 16.2303 22.8785 16.7291 22.4701 17.1374C22.0618 17.5458 21.563 17.7499 20.9736 17.7499H3.025ZM2.66599 8.52878H21.3327V4.80449H2.66599V8.52878Z" fill="black"/>
</svg>
