<svg width="63" height="42" viewBox="0 0 63 42" fill="none" xmlns="http://www.w3.org/2000/svg">
<rect x="0.5" y="0.5" width="62" height="41" rx="6.5" fill="white" stroke="#E2E2E2"/>
<path d="M36.1059 29.4265H26.6934V12.3267H36.1059V29.4265Z" fill="#FF5F00"/>
<path d="M27.2964 20.8753C27.2964 17.4066 28.903 14.3167 31.405 12.3254C29.5754 10.8693 27.2663 10.0002 24.7568 10.0002C18.8158 10.0002 14 14.8691 14 20.8753C14 26.8816 18.8158 31.7505 24.7568 31.7505C27.2663 31.7505 29.5754 30.8814 31.405 29.4253C28.903 27.434 27.2964 24.3441 27.2964 20.8753Z" fill="#EB001B"/>
<path d="M48.8002 20.8753C48.8002 26.8816 43.9844 31.7505 38.0434 31.7505C35.5339 31.7505 33.2248 30.8814 31.3945 29.4253C33.8972 27.434 35.5038 24.3441 35.5038 20.8753C35.5038 17.4066 33.8972 14.3167 31.3945 12.3254C33.2248 10.8693 35.5339 10.0002 38.0434 10.0002C43.9844 10.0002 48.8002 14.8691 48.8002 20.8753Z" fill="#F79E1B"/>
</svg>
