<svg width="42" height="42" viewBox="0 0 42 42" fill="none" xmlns="http://www.w3.org/2000/svg">
<path d="M28.875 35C30.5667 35 32.0104 34.4021 33.2062 33.2062C34.4021 32.0104 35 30.5667 35 28.875V25.375H22.75V28.875C22.75 30.5667 23.3479 32.0104 24.5437 33.2062C25.7396 34.4021 27.1833 35 28.875 35ZM22.7601 23.625H28V17.5942C26.4654 17.8029 25.2185 18.4715 24.2594 19.6C23.3002 20.7285 22.8005 22.0702 22.7601 23.625ZM29.75 23.625H34.9899C34.9495 22.0702 34.4498 20.7285 33.4906 19.6C32.5315 18.4715 31.2846 17.8029 29.75 17.5942V23.625ZM28.875 36.75C26.6853 36.75 24.8253 35.9849 23.2952 34.4548C21.7651 32.9247 21 31.0647 21 28.875V23.625C21 21.4353 21.7651 19.5753 23.2952 18.0452C24.8253 16.5151 26.6853 15.75 28.875 15.75C31.0647 15.75 32.9247 16.5151 34.4548 18.0452C35.9849 19.5753 36.75 21.4353 36.75 23.625V28.875C36.75 31.0647 35.9849 32.9247 34.4548 34.4548C32.9247 35.9849 31.0647 36.75 28.875 36.75ZM8.07691 33.25C7.27147 33.25 6.59896 32.9802 6.05937 32.4406C5.51979 31.901 5.25 31.2285 5.25 30.4231V11.5769C5.25 10.7715 5.51979 10.099 6.05937 9.55937C6.59896 9.01979 7.27147 8.75 8.07691 8.75H33.9231C34.7285 8.75 35.401 9.01979 35.9406 9.55937C36.4802 10.099 36.75 10.7715 36.75 11.5769H35C35 11.2628 34.899 11.0048 34.6971 10.8029C34.4952 10.601 34.2372 10.5 33.9231 10.5H8.07691C7.76281 10.5 7.5048 10.601 7.30288 10.8029C7.10096 11.0048 7 11.2628 7 11.5769V30.4231C7 30.7372 7.10096 30.9952 7.30288 31.1971C7.5048 31.399 7.76281 31.5 8.07691 31.5H16.837V33.25H8.07691Z" fill="black"/>
</svg>
