<svg width="49" height="49" viewBox="0 0 49 49" fill="none" xmlns="http://www.w3.org/2000/svg">
<rect width="49" height="49" rx="24.5" fill="white" fill-opacity="0.17"/>
<path d="M32.8643 27.3374L31.7248 25.4458C31.4855 25.0241 31.269 24.2265 31.269 23.7593V20.8762C31.269 18.1983 29.6964 15.8851 27.4287 14.8025C26.8362 13.7541 25.7422 13.1046 24.4887 13.1046C23.2466 13.1046 22.1299 13.7769 21.5373 14.8367C19.3152 15.9421 17.7769 18.2325 17.7769 20.8762V23.7593C17.7769 24.2265 17.5604 25.0241 17.3211 25.4344L16.1701 27.3374C15.7143 28.1009 15.6118 28.9441 15.8966 29.719C16.1701 30.4825 16.8197 31.0751 17.6629 31.36C19.8736 32.1121 22.1983 32.4767 24.5229 32.4767C26.8476 32.4767 29.1722 32.1121 31.3829 31.3714C32.1806 31.1093 32.7959 30.5053 33.0922 29.719C33.3885 28.9328 33.3087 28.0667 32.8643 27.3374Z" fill="white"/>
<path d="M27.7245 33.6277C27.2459 34.9496 25.981 35.8954 24.4996 35.8954C23.5994 35.8954 22.7106 35.5308 22.0838 34.8812C21.7192 34.5394 21.4457 34.0835 21.2861 33.6163C21.4343 33.6391 21.5824 33.6505 21.7419 33.6733C22.004 33.7075 22.2775 33.7417 22.551 33.7645C23.2006 33.8214 23.8615 33.8556 24.5224 33.8556C25.1719 33.8556 25.8215 33.8214 26.4596 33.7645C26.6989 33.7417 26.9382 33.7303 27.1661 33.6961C27.3485 33.6733 27.5308 33.6505 27.7245 33.6277Z" fill="white"/>
</svg>
