<svg width="28" height="28" viewBox="0 0 28 28" fill="none" xmlns="http://www.w3.org/2000/svg">
<path d="M16.5115 10.5001C16.2118 10.5001 15.9613 10.3995 15.7601 10.1984C15.559 9.9972 15.4584 9.74445 15.4584 9.4401V5.14353C15.4584 4.8392 15.5597 4.58646 15.7625 4.38528C15.9653 4.18409 16.2165 4.0835 16.5162 4.0835H22.8635C23.1632 4.0835 23.4137 4.18409 23.6149 4.38528C23.8161 4.58646 23.9167 4.8392 23.9167 5.14353V9.4401C23.9167 9.74445 23.8153 9.9972 23.6125 10.1984C23.4097 10.3995 23.1585 10.5001 22.8587 10.5001H16.5115ZM5.13649 14.5834C4.83678 14.5834 4.58633 14.4828 4.38516 14.2815C4.18397 14.0803 4.08337 13.8309 4.08337 13.5334V5.13329C4.08337 4.83579 4.18476 4.58646 4.38752 4.38528C4.59029 4.18409 4.84154 4.0835 5.14128 4.0835H11.4885C11.7883 4.0835 12.0387 4.18413 12.2399 4.3854C12.4411 4.58665 12.5416 4.83603 12.5416 5.13353V13.5336C12.5416 13.8311 12.4403 14.0805 12.2375 14.2817C12.0348 14.4828 11.7835 14.5834 11.4838 14.5834H5.13649ZM16.5115 23.9168C16.2118 23.9168 15.9613 23.8161 15.7601 23.6149C15.559 23.4136 15.4584 23.1642 15.4584 22.8667V14.4666C15.4584 14.1691 15.5597 13.9198 15.7625 13.7186C15.9653 13.5174 16.2165 13.4168 16.5162 13.4168H22.8635C23.1632 13.4168 23.4137 13.5175 23.6149 13.7187C23.8161 13.92 23.9167 14.1694 23.9167 14.4669V22.867C23.9167 23.1645 23.8153 23.4138 23.6125 23.615C23.4097 23.8162 23.1585 23.9168 22.8587 23.9168H16.5115ZM5.13649 23.9168C4.83678 23.9168 4.58633 23.8162 4.38516 23.615C4.18397 23.4138 4.08337 23.1611 4.08337 22.8567V18.5602C4.08337 18.2558 4.18476 18.0031 4.38752 17.8019C4.59029 17.6007 4.84154 17.5001 5.14128 17.5001H11.4885C11.7883 17.5001 12.0387 17.6007 12.2399 17.8019C12.4411 18.0031 12.5416 18.2558 12.5416 18.5602V22.8567C12.5416 23.1611 12.4403 23.4138 12.2375 23.615C12.0348 23.8162 11.7835 23.9168 11.4838 23.9168H5.13649Z" fill="white"/>
</svg>
