<svg width="15" height="19" viewBox="0 0 15 19" fill="none" xmlns="http://www.w3.org/2000/svg">
<path d="M3.78974 18.75C3.09364 18.75 2.50442 18.5013 2.02209 18.0038C1.53975 17.5064 1.29858 16.8987 1.29858 16.1807V3.82647H1.03354C0.740717 3.82647 0.495255 3.72427 0.297153 3.51986C0.0990509 3.31548 0 3.06221 0 2.76004C0 2.4579 0.0990509 2.20479 0.297153 2.00072C0.495255 1.79662 0.740717 1.69457 1.03354 1.69457H5.24736V1.25727C5.24736 0.909247 5.36617 0.612695 5.6038 0.367617C5.84143 0.122539 6.12898 0 6.46646 0H8.53354C8.87099 0 9.15853 0.122539 9.39616 0.367617C9.63379 0.612695 9.75261 0.909247 9.75261 1.25727V1.69457H13.9664C14.2593 1.69457 14.5047 1.79677 14.7028 2.00118C14.9009 2.20558 15 2.45886 15 2.761C15 3.06317 14.9009 3.31629 14.7028 3.52036C14.5047 3.72444 14.2593 3.82647 13.9664 3.82647H13.7014V16.1807C13.7014 16.8987 13.4602 17.5064 12.9779 18.0038C12.4956 18.5013 11.9063 18.75 11.2102 18.75H3.78974Z" fill="black"/>
</svg>
