<svg width="19" height="19" viewBox="0 0 19 19" fill="none" xmlns="http://www.w3.org/2000/svg">
<path d="M16.625 17.4165H2.375C2.05042 17.4165 1.78125 17.1473 1.78125 16.8228C1.78125 16.4982 2.05042 16.229 2.375 16.229H16.625C16.9496 16.229 17.2188 16.4982 17.2188 16.8228C17.2188 17.1473 16.9496 17.4165 16.625 17.4165Z" fill="#292D32"/>
<path d="M15.0572 2.75514C13.5214 1.21931 12.0172 1.17973 10.4418 2.75514L9.48388 3.71306C9.40471 3.79223 9.37305 3.9189 9.40471 4.02973C10.0064 6.12765 11.6847 7.80598 13.7826 8.40764C13.8143 8.41556 13.846 8.42348 13.8776 8.42348C13.9647 8.42348 14.0439 8.39181 14.1072 8.32848L15.0572 7.37056C15.841 6.59473 16.221 5.84264 16.221 5.08264C16.2289 4.29889 15.8489 3.53889 15.0572 2.75514Z" fill="#292D32"/>
<path d="M12.3576 9.12788C12.128 9.01705 11.9063 8.90622 11.6926 8.77955C11.5184 8.67663 11.3522 8.5658 11.1859 8.44705C11.0513 8.35997 10.893 8.2333 10.7426 8.10663C10.7268 8.09872 10.6713 8.05122 10.608 7.98788C10.3468 7.76622 10.0538 7.48122 9.7926 7.16455C9.76885 7.14872 9.72927 7.0933 9.67385 7.02205C9.59468 6.92705 9.4601 6.76872 9.34135 6.58663C9.24635 6.46788 9.13552 6.29372 9.0326 6.11955C8.90593 5.9058 8.7951 5.69205 8.68427 5.47038C8.53895 5.15899 8.13025 5.06649 7.88726 5.30947L3.43552 9.76122C3.3326 9.86413 3.2376 10.0621 3.21385 10.1966L2.78635 13.2287C2.70718 13.767 2.8576 14.2737 3.1901 14.6141C3.4751 14.8912 3.87093 15.0416 4.29843 15.0416C4.39343 15.0416 4.48843 15.0337 4.58343 15.0179L7.62343 14.5904C7.76593 14.5666 7.96385 14.4716 8.05885 14.3687L12.5179 9.90962C12.7561 9.6715 12.6666 9.26178 12.3576 9.12788Z" fill="#292D32"/>
</svg>
