<svg width="19" height="20" viewBox="0 0 19 20" fill="none" xmlns="http://www.w3.org/2000/svg">
<path d="M16.625 17.9165H2.375C2.05042 17.9165 1.78125 17.6473 1.78125 17.3228C1.78125 16.9982 2.05042 16.729 2.375 16.729H16.625C16.9496 16.729 17.2188 16.9982 17.2188 17.3228C17.2188 17.6473 16.9496 17.9165 16.625 17.9165Z" fill="white"/>
<path d="M15.0572 3.25514C13.5214 1.71931 12.0172 1.67973 10.4418 3.25514L9.48388 4.21306C9.40471 4.29223 9.37305 4.4189 9.40471 4.52973C10.0064 6.62765 11.6847 8.30598 13.7826 8.90764C13.8143 8.91556 13.846 8.92348 13.8776 8.92348C13.9647 8.92348 14.0439 8.89181 14.1072 8.82848L15.0572 7.87056C15.841 7.09473 16.221 6.34264 16.221 5.58264C16.2289 4.79889 15.8489 4.03889 15.0572 3.25514Z" fill="white"/>
<path d="M12.3576 9.62788C12.128 9.51705 11.9063 9.40622 11.6926 9.27955C11.5184 9.17663 11.3522 9.0658 11.1859 8.94705C11.0513 8.85997 10.893 8.7333 10.7426 8.60663C10.7268 8.59872 10.6713 8.55122 10.608 8.48788C10.3468 8.26622 10.0538 7.98122 9.7926 7.66455C9.76885 7.64872 9.72927 7.5933 9.67385 7.52205C9.59468 7.42705 9.4601 7.26872 9.34135 7.08663C9.24635 6.96788 9.13552 6.79372 9.0326 6.61955C8.90593 6.4058 8.7951 6.19205 8.68427 5.97038C8.53895 5.65899 8.13025 5.56649 7.88726 5.80947L3.43552 10.2612C3.3326 10.3641 3.2376 10.5621 3.21385 10.6966L2.78635 13.7287C2.70718 14.267 2.8576 14.7737 3.1901 15.1141C3.4751 15.3912 3.87093 15.5416 4.29843 15.5416C4.39343 15.5416 4.48843 15.5337 4.58343 15.5179L7.62343 15.0904C7.76593 15.0666 7.96385 14.9716 8.05885 14.8687L12.5179 10.4096C12.7561 10.1715 12.6666 9.76178 12.3576 9.62788Z" fill="white"/>
</svg>
