<svg width="33" height="33" viewBox="0 0 33 33" fill="none" xmlns="http://www.w3.org/2000/svg">
<path d="M16.6356 24.1369C16.9302 24.1369 17.1805 24.0312 17.3865 23.8198C17.5925 23.6085 17.6955 23.3555 17.6955 23.0609C17.6955 22.7748 17.5919 22.5267 17.3849 22.3164C17.1778 22.1061 16.9269 22.001 16.6323 22.001C16.3377 22.001 16.0853 22.1067 15.875 22.3181C15.6647 22.5294 15.5596 22.7781 15.5596 23.0642C15.5596 23.3588 15.6653 23.6113 15.8767 23.8215C16.088 24.0318 16.341 24.1369 16.6356 24.1369ZM16.5117 29.4856C14.7572 29.4856 13.1139 29.1532 11.5818 28.4883C10.0498 27.8234 8.70805 26.9155 7.55665 25.7646C6.40523 24.6137 5.49693 23.2717 4.83175 21.7387C4.16657 20.2057 3.83398 18.561 3.83398 16.8045C3.83398 15.0567 4.16643 13.4137 4.83132 11.8757C5.49621 10.3378 6.4041 8.99863 7.55498 7.85834C8.7059 6.71803 10.0479 5.81529 11.5809 5.15011C13.1139 4.48493 14.7586 4.15234 16.5151 4.15234C18.2629 4.15234 19.9059 4.48479 21.4439 5.14968C22.9818 5.81457 24.321 6.7169 25.4613 7.85668C26.6016 8.99648 27.5043 10.3368 28.1695 11.8776C28.8347 13.4185 29.1673 15.0619 29.1673 16.8079C29.1673 18.5624 28.8348 20.2057 28.1699 21.7378C27.505 23.2698 26.6027 24.6095 25.4629 25.7568C24.3231 26.9041 22.9828 27.8124 21.442 28.4817C19.9011 29.151 18.2577 29.4856 16.5117 29.4856ZM16.5173 27.9728C19.6104 27.9728 22.2399 26.8865 24.4058 24.7138C26.5716 22.5412 27.6545 19.904 27.6545 16.8023C27.6545 13.7092 26.5736 11.0797 24.412 8.91384C22.2503 6.74804 19.6132 5.66514 16.5006 5.66514C13.41 5.66514 10.7784 6.74597 8.60575 8.90761C6.43311 11.0693 5.34678 13.7064 5.34678 16.819C5.34678 19.9096 6.43311 22.5412 8.60575 24.7138C10.7784 26.8865 13.4156 27.9728 16.5173 27.9728ZM16.5804 10.9215C17.2776 10.9215 17.8882 11.1344 18.4122 11.5602C18.9361 11.986 19.1981 12.5287 19.1981 13.1883C19.1981 13.7472 19.037 14.2383 18.7149 14.6615C18.3929 15.0847 18.0257 15.4825 17.6135 15.8549C17.1295 16.2706 16.7067 16.7292 16.3453 17.2307C15.9839 17.7323 15.7904 18.295 15.7648 18.919C15.7562 19.1121 15.8247 19.266 15.9704 19.3805C16.116 19.495 16.2859 19.5523 16.4801 19.5523C16.6869 19.5523 16.8586 19.4848 16.9952 19.3497C17.1317 19.2147 17.2164 19.0438 17.2493 18.8369C17.3245 18.3874 17.498 17.978 17.7698 17.6087C18.0416 17.2395 18.3602 16.9027 18.7256 16.5982C19.2423 16.1471 19.6762 15.6351 20.0275 15.0621C20.3788 14.4892 20.5545 13.8629 20.5545 13.1831C20.5545 12.1404 20.172 11.2703 19.407 10.5728C18.6421 9.87542 17.7306 9.52671 16.6728 9.52671C15.9255 9.52671 15.2109 9.69338 14.5288 10.0267C13.8468 10.36 13.2852 10.8318 12.8442 11.4421C12.7229 11.613 12.6702 11.797 12.6863 11.9939C12.7024 12.1908 12.7835 12.3486 12.9295 12.4671C13.141 12.6025 13.3528 12.6434 13.5647 12.5895C13.7767 12.5357 13.9519 12.4122 14.0904 12.219C14.3908 11.8211 14.7556 11.5054 15.1849 11.2719C15.6142 11.0383 16.0793 10.9215 16.5804 10.9215Z" fill="#4F4F4F"/>
</svg>
