<svg width="33" height="32" viewBox="0 0 33 32" fill="none" xmlns="http://www.w3.org/2000/svg">
<path d="M16.5004 26.8537C14.9887 26.8537 13.5727 26.5685 12.2522 25.9979C10.9317 25.4274 9.78114 24.6537 8.80049 23.6767C7.81983 22.6997 7.049 21.548 6.488 20.2217C5.92699 18.8953 5.64648 17.4727 5.64648 15.9537C5.64648 14.4421 5.92699 13.029 6.488 11.7143C7.049 10.3997 7.81983 9.25392 8.80049 8.27692C9.78114 7.29994 10.9317 6.53387 12.2522 5.97872C13.5727 5.42357 14.9887 5.146 16.5004 5.146C18.012 5.146 19.428 5.42357 20.7485 5.97872C22.069 6.53387 23.2196 7.29994 24.2002 8.27692C25.1809 9.25392 25.9517 10.3997 26.5127 11.7143C27.0737 13.029 27.3542 14.4421 27.3542 15.9537C27.3542 17.4727 27.0737 18.8953 26.5127 20.2217C25.9517 21.548 25.1809 22.6997 24.2002 23.6767C23.2196 24.6537 22.069 25.4274 20.7485 25.9979C19.428 26.5685 18.012 26.8537 16.5004 26.8537ZM16.5004 25.6146C17.2108 24.8485 17.7952 24.0172 18.2537 23.1208C18.7122 22.2244 19.0879 21.1741 19.3808 19.9701H13.6375C13.926 21.1565 14.2995 22.205 14.758 23.1153C15.2165 24.0257 15.7973 24.8587 16.5004 25.6146ZM14.6878 25.3817C14.1531 24.6874 13.6796 23.8792 13.2673 22.9571C12.855 22.035 12.5309 21.0394 12.295 19.9701H7.74694C8.47785 21.4466 9.39626 22.6125 10.5022 23.468C11.6081 24.3234 13.0033 24.9613 14.6878 25.3817ZM18.3415 25.3641C19.8371 25.0287 21.189 24.3937 22.3975 23.4592C23.6059 22.5247 24.558 21.3616 25.2538 19.9701H20.7232C20.4391 21.0423 20.0956 22.0358 19.6928 22.9505C19.29 23.8653 18.8395 24.6698 18.3415 25.3641ZM7.3295 18.6738H12.0578C11.986 18.1524 11.9398 17.6723 11.9193 17.2336C11.8988 16.7949 11.8886 16.3683 11.8886 15.9537C11.8886 15.4923 11.9017 15.0558 11.9281 14.6442C11.9545 14.2326 12.0036 13.7873 12.0753 13.3084H7.3295C7.18887 13.7507 7.08926 14.1784 7.03067 14.5915C6.97208 15.0046 6.94278 15.4587 6.94278 15.9537C6.94278 16.4561 6.97208 16.9227 7.03067 17.3533C7.08926 17.784 7.18887 18.2241 7.3295 18.6738ZM13.3892 18.6738H19.6291C19.7126 18.0982 19.7675 17.6082 19.7939 17.2039C19.8203 16.7996 19.8334 16.3829 19.8334 15.9537C19.8334 15.5436 19.8203 15.1441 19.7939 14.7552C19.7675 14.3663 19.7126 13.884 19.6291 13.3084H13.3892C13.3057 13.884 13.2508 14.3663 13.2244 14.7552C13.198 15.1441 13.1849 15.5436 13.1849 15.9537C13.1849 16.3829 13.198 16.7996 13.2244 17.2039C13.2508 17.6082 13.3057 18.0982 13.3892 18.6738ZM20.9254 18.6738H25.6712C25.8118 18.2241 25.9115 17.784 25.97 17.3533C26.0286 16.9227 26.0579 16.4561 26.0579 15.9537C26.0579 15.4587 26.0286 15.0046 25.97 14.5915C25.9115 14.1784 25.8118 13.7507 25.6712 13.3084H20.9539C21.0184 13.9382 21.0638 14.4512 21.0902 14.8475C21.1165 15.2437 21.1297 15.6124 21.1297 15.9537C21.1297 16.38 21.1136 16.7989 21.0814 17.2105C21.0492 17.6221 20.9971 18.1099 20.9254 18.6738ZM20.7057 12.0121H25.2538C24.5815 10.5517 23.6502 9.35974 22.4601 8.43619C21.27 7.51265 19.8876 6.90295 18.313 6.60707C18.8476 7.32627 19.3145 8.13372 19.7137 9.02944C20.1128 9.92515 20.4435 10.9194 20.7057 12.0121ZM13.6375 12.0121H19.4094C19.156 10.9369 18.7799 9.92259 18.2811 8.96903C17.7824 8.01546 17.1888 7.1659 16.5004 6.42033C15.8544 7.01503 15.3091 7.74961 14.8646 8.62407C14.42 9.49854 14.011 10.6279 13.6375 12.0121ZM7.74694 12.0121H12.3126C12.5514 10.9545 12.8656 9.98264 13.2552 9.09645C13.6448 8.21025 14.1128 7.38632 14.6592 6.62464C13.0846 6.92785 11.7128 7.53353 10.5439 8.4417C9.37502 9.34985 8.4427 10.54 7.74694 12.0121Z" fill="#4F4F4F"/>
</svg>
