<svg width="28" height="28" viewBox="0 0 28 28" fill="none" xmlns="http://www.w3.org/2000/svg">
<path d="M14.0327 20.1026C14.2906 20.1026 14.5082 20.0135 14.6854 19.8354C14.8627 19.6573 14.9513 19.4393 14.9513 19.1814C14.9513 18.9235 14.8622 18.7059 14.6842 18.5287C14.5061 18.3514 14.2881 18.2628 14.0302 18.2628C13.7722 18.2628 13.5546 18.3519 13.3774 18.53C13.2002 18.708 13.1115 18.926 13.1115 19.184C13.1115 19.4419 13.2006 19.6595 13.3787 19.8367C13.5568 20.014 13.7748 20.1026 14.0327 20.1026ZM13.4301 16.2391H14.5564C14.5863 15.732 14.6817 15.32 14.8425 15.0029C15.0033 14.6858 15.3342 14.2812 15.8353 13.7891C16.3558 13.2686 16.7432 12.8023 16.9974 12.3902C17.2517 11.9781 17.3788 11.5012 17.3788 10.9593C17.3788 10.0399 17.0558 9.30714 16.4097 8.7612C15.7635 8.21526 14.9992 7.94229 14.1167 7.94229C13.2776 7.94229 12.5652 8.17039 11.9797 8.6266C11.3941 9.0828 10.9652 9.60705 10.6929 10.1994L11.7654 10.6436C11.9524 10.2188 12.2197 9.84338 12.5675 9.51732C12.9152 9.19123 13.4167 9.02819 14.0718 9.02819C14.8286 9.02819 15.3813 9.23573 15.7298 9.65081C16.0783 10.0659 16.2526 10.5224 16.2526 11.0205C16.2526 11.4244 16.1434 11.7852 15.925 12.103C15.7066 12.4209 15.4224 12.7406 15.0724 13.0622C14.3964 13.6859 13.9536 14.2146 13.7442 14.6484C13.5348 15.0822 13.4301 15.6124 13.4301 16.2391ZM14.0039 24.5C12.5519 24.5 11.1868 24.2245 9.90862 23.6734C8.6304 23.1224 7.51852 22.3745 6.57297 21.4299C5.62745 20.4852 4.8789 19.3744 4.32734 18.0974C3.77578 16.8204 3.5 15.4559 3.5 14.0039C3.5 12.5519 3.77552 11.1868 4.32655 9.90862C4.87761 8.6304 5.62546 7.51852 6.57011 6.57297C7.51476 5.62745 8.62559 4.8789 9.90261 4.32734C11.1796 3.77578 12.5441 3.5 13.9961 3.5C15.4481 3.5 16.8132 3.77552 18.0914 4.32655C19.3696 4.87761 20.4815 5.62546 21.427 6.57011C22.3726 7.51476 23.1211 8.62559 23.6727 9.90261C24.2242 11.1796 24.5 12.5441 24.5 13.9961C24.5 15.4481 24.2245 16.8132 23.6734 18.0914C23.1224 19.3696 22.3745 20.4815 21.4299 21.427C20.4852 22.3726 19.3744 23.1211 18.0974 23.6727C16.8204 24.2242 15.4559 24.5 14.0039 24.5Z" fill="white"/>
</svg>
