<svg width="37" height="37" viewBox="0 0 37 37" fill="none" xmlns="http://www.w3.org/2000/svg">
<path d="M20.969 33.572H18.3278V24.292H20.969V33.572Z" fill="#90D9E1"/>
<path d="M30.6158 33.572H27.8251V19.2489H30.6158V33.572Z" fill="#90D9E1"/>
<path d="M28.0492 12.7871C28.0011 12.7871 27.9527 12.7812 27.9041 12.7694C27.5803 12.6894 27.3834 12.3623 27.4631 12.0392L28.8842 6.29255L23.1382 4.87209C22.8145 4.79178 22.6176 4.46495 22.6972 4.14154C22.7779 3.81782 23.1053 3.62217 23.4275 3.70061L29.7592 5.26619C30.083 5.3465 30.2802 5.67333 30.2005 5.99674L28.6346 12.3285C28.5664 12.6032 28.3202 12.7871 28.0492 12.7871Z" fill="#333333"/>
<path d="M6.38501 20.4746C6.18098 20.4746 5.9816 20.3707 5.86811 20.1828C5.69602 19.8979 5.78749 19.527 6.07307 19.3549L8.13508 18.1103C8.4188 17.9385 8.79027 18.0297 8.96299 18.3152C9.13508 18.6005 9.04361 18.9714 8.75803 19.1431L6.69602 20.3878C6.59896 20.4467 6.49105 20.4746 6.38501 20.4746Z" fill="#333333"/>
<path d="M11.4933 17.3911C11.2889 17.3911 11.0899 17.2876 10.9764 17.0996C10.8043 16.8144 10.8958 16.4435 11.1813 16.2717L29.3029 5.33563C29.5881 5.16354 29.9584 5.25564 30.1308 5.5406C30.3029 5.82556 30.2114 6.19641 29.9258 6.3685L11.8043 17.3046C11.7072 17.3635 11.5993 17.3911 11.4933 17.3911Z" fill="#333333"/>
<path d="M7.77673 32.9688H11.1584V27.798H7.77673V32.9688ZM11.7615 34.175H7.17363C6.84061 34.175 6.57053 33.905 6.57053 33.572V27.1949C6.57053 26.8619 6.84061 26.5918 7.17363 26.5918H11.7615C12.0945 26.5918 12.3646 26.8619 12.3646 27.1949V33.572C12.3646 33.905 12.0945 34.175 11.7615 34.175Z" fill="#333333"/>
<path d="M17.204 32.9688H20.5854V23.4021H17.204V32.9688ZM21.1885 34.175H16.6009C16.2676 34.175 15.9978 33.905 15.9978 33.572V22.7989C15.9978 22.4659 16.2676 22.1959 16.6009 22.1959H21.1885C21.5218 22.1959 21.7919 22.4659 21.7919 22.7989V33.572C21.7919 33.905 21.5218 34.175 21.1885 34.175Z" fill="#333333"/>
<path d="M26.6307 32.9688H30.0121V17.7552H26.6307V32.9688ZM30.6155 34.175H26.0276C25.6946 34.175 25.4245 33.905 25.4245 33.572V17.1518C25.4245 16.8188 25.6946 16.5487 26.0276 16.5487H30.6155C30.9485 16.5487 31.2186 16.8188 31.2186 17.1518V33.572C31.2186 33.905 30.9485 34.175 30.6155 34.175Z" fill="#333333"/>
</svg>
