<svg width="37" height="37" viewBox="0 0 37 37" fill="none" xmlns="http://www.w3.org/2000/svg">
<path d="M29.1306 25.8811C29.1306 30.1958 25.633 33.6934 21.318 33.6934C17.0034 33.6934 13.5058 30.1958 13.5058 25.8811C13.5058 21.5662 17.0034 18.0686 21.318 18.0686C25.633 18.0686 29.1306 21.5662 29.1306 25.8811Z" fill="#ABDB4A"/>
<path d="M19.0784 35.7263C14.0422 35.7263 9.47064 32.558 7.70251 27.8418C5.93505 23.1262 7.29763 17.7334 11.0931 14.4227C11.36 14.1898 11.7655 14.2172 11.9993 14.4847C12.2325 14.7519 12.2047 15.1578 11.9372 15.3913C8.54298 18.3516 7.32504 23.1741 8.90592 27.3913C10.4865 31.6079 14.5745 34.4413 19.0784 34.4413C23.5819 34.4413 27.67 31.6079 29.2505 27.3913C30.8314 23.1734 29.6128 18.3512 26.2189 15.3913C25.9514 15.1578 25.9237 14.7519 26.1565 14.4847C26.3893 14.2182 26.7959 14.1898 27.063 14.4227C30.8585 17.7327 32.2211 23.1259 30.4539 27.8418C28.6858 32.558 24.1146 35.7263 19.0784 35.7263Z" fill="#333333"/>
<path d="M19.2149 30.7212C18.8672 30.7212 18.5812 30.4431 18.5729 30.0937L18.5554 29.3319C18.5475 28.9772 18.8285 28.6829 19.1829 28.6747C19.1882 28.6747 19.1935 28.6747 19.1984 28.6747C19.5462 28.6747 19.8321 28.9524 19.8401 29.3018L19.8579 30.0637C19.8658 30.4184 19.5848 30.7126 19.2301 30.7212C19.2248 30.7212 19.2199 30.7212 19.2149 30.7212Z" fill="#333333"/>
<path d="M18.9266 18.2996C18.5789 18.2996 18.2929 18.0215 18.2847 17.6718L18.2662 16.8604C18.2582 16.506 18.5393 16.2118 18.894 16.2032C19.2595 16.2058 19.5429 16.4763 19.5511 16.8313L19.5696 17.6427C19.5776 17.9971 19.2965 18.291 18.9418 18.2996C18.9365 18.2996 18.9316 18.2996 18.9266 18.2996Z" fill="#333333"/>
<path d="M18.908 29.4487C17.0428 29.4487 15.7482 28.2704 15.377 27.8867C15.1306 27.6317 15.1369 27.2252 15.3922 26.9782C15.6465 26.7328 16.054 26.7378 16.3004 26.9934C16.5127 27.2127 17.6491 28.2985 19.2108 28.1495C19.9159 28.0818 21.3336 27.6813 21.6506 26.6486C21.8405 26.031 21.6275 25.2081 21.1328 24.6467C20.5446 23.9789 19.723 23.8921 18.7722 23.7913C17.7323 23.6814 16.5533 23.5565 15.7508 22.5163C15.094 21.6649 14.9074 20.4334 15.2862 19.4523C15.8602 17.9678 17.5761 17.3641 18.9126 17.4071C20.5195 17.4728 21.5539 18.4975 21.9237 18.9358C22.1533 19.2062 22.1189 19.6118 21.8481 19.8406C21.5776 20.0711 21.1721 20.0365 20.9432 19.765C20.7398 19.5246 19.9892 18.737 18.8601 18.6911C17.9469 18.6574 16.8112 19.0692 16.4846 19.9149C16.2647 20.4836 16.3816 21.2303 16.768 21.7313C17.2128 22.3072 17.8707 22.4043 18.9076 22.5136C19.9717 22.6266 21.1774 22.754 22.0965 23.7973C22.896 24.7041 23.2031 25.9716 22.8795 27.0257C22.397 28.595 20.6675 29.3008 19.3333 29.4283C19.1887 29.4425 19.0467 29.4487 18.908 29.4487Z" fill="#333333"/>
<path d="M25.9462 12.7356H12.2084C11.8534 12.7356 11.5661 12.448 11.5661 12.0929C11.5661 11.7383 11.8534 11.4506 12.2084 11.4506H25.9462C26.3012 11.4506 26.5889 11.7383 26.5889 12.0929C26.5889 12.448 26.3012 12.7356 25.9462 12.7356Z" fill="#333333"/>
<path d="M25.8486 10.135C25.7822 10.135 25.7151 10.1248 25.6488 10.1027C25.3116 9.99238 25.128 9.62944 25.2383 9.29293L26.7445 4.69529C26.7495 4.67911 26.7561 4.65897 26.7254 4.63453C26.6943 4.60877 26.6768 4.62033 26.662 4.62892C26.4298 4.76696 26.2201 4.95024 25.9985 5.14376C25.4351 5.63682 24.7333 6.2504 23.4091 6.2504C22.0845 6.2504 21.383 5.63682 20.8193 5.14376C20.3157 4.70322 19.9181 4.35479 19.0759 4.35479C18.2348 4.35479 17.8372 4.70322 17.3339 5.14376C16.7708 5.63682 16.0697 6.2504 14.7458 6.2504C13.4215 6.2504 12.7197 5.63682 12.1567 5.14344C11.9295 4.94463 11.7151 4.75705 11.4747 4.61802C11.4605 4.60877 11.4397 4.59521 11.405 4.62295C11.377 4.64508 11.3823 4.66261 11.3872 4.67978L12.8228 9.30186C12.9281 9.64102 12.7389 10.001 12.4001 10.1057C12.0589 10.2143 11.7016 10.0211 11.5963 9.68328L10.1607 5.0612C9.99622 4.53116 10.1699 3.96514 10.6035 3.61871C11.0401 3.26931 11.6349 3.22635 12.1187 3.50574C12.4668 3.70752 12.7392 3.94596 13.0028 4.1768C13.5064 4.61735 13.9043 4.96574 14.7458 4.96574C15.5869 4.96574 15.9845 4.61735 16.4878 4.1768C17.0509 3.68408 17.752 3.07016 19.0759 3.07016C20.4002 3.07016 21.102 3.68408 21.6657 4.1768C22.1693 4.61735 22.5669 4.96574 23.4091 4.96574C24.2505 4.96574 24.6485 4.61735 25.1524 4.1768C25.4084 3.9529 25.6729 3.72173 26.0077 3.52325C26.4929 3.23726 27.0886 3.27954 27.5298 3.6329C27.9694 3.9856 28.1405 4.55956 27.9651 5.09455L26.4588 9.6922C26.3707 9.96333 26.119 10.135 25.8486 10.135Z" fill="#333333"/>
</svg>
