<svg width="37" height="37" viewBox="0 0 37 37" fill="none" xmlns="http://www.w3.org/2000/svg">
<path d="M15.6755 19.5163L19.2659 33.5005L32.8735 19.5163H15.6755Z" fill="#F46C95"/>
<path d="M35.1796 17.7839H15.4479C15.0813 17.7839 14.784 17.487 14.784 17.12C14.784 16.7534 15.0813 16.456 15.4479 16.456H33.4434L25.5928 9.4223H12.5634L4.71283 16.456H10.1138C10.4805 16.456 10.7778 16.7534 10.7778 17.12C10.7778 17.487 10.4805 17.7839 10.1138 17.7839H2.97667C2.70119 17.7839 2.45473 17.6143 2.35607 17.3572C2.2581 17.1002 2.32877 16.8094 2.53359 16.6257L11.866 8.26375C11.9879 8.15451 12.1456 8.0941 12.3091 8.0941H25.8471C26.0106 8.0941 26.1684 8.15451 26.2902 8.26375L35.6227 16.6257C35.8275 16.8094 35.8981 17.1002 35.8002 17.3572C35.7015 17.6143 35.4544 17.7839 35.1796 17.7839Z" fill="#333333"/>
<path d="M19.0781 34.5081C19.0781 34.5081 19.0781 34.5081 19.0777 34.5081C18.8972 34.5081 18.7244 34.4343 18.5995 34.3043C18.4459 34.1438 3.20584 18.2887 2.50708 17.5892C2.24764 17.3301 2.24764 16.9099 2.50708 16.6505C2.76617 16.391 3.18638 16.391 3.44582 16.6505C4.09167 17.2963 16.4284 30.1287 19.0788 32.8866L34.7011 16.6593C34.9558 16.3951 35.376 16.388 35.6402 16.6416C35.9041 16.8959 35.9119 17.3161 35.6576 17.5807L19.5563 34.305C19.4314 34.4343 19.2587 34.5081 19.0781 34.5081Z" fill="#333333"/>
<path d="M19.0788 34.5081C18.8433 34.5081 18.6156 34.3828 18.4951 34.1612L9.40089 17.437C9.31828 17.2857 9.29813 17.1079 9.34422 16.942L11.6692 8.58002C11.7672 8.22637 12.1345 8.01986 12.4868 8.11851C12.8401 8.21648 13.0469 8.58277 12.9486 8.93608L10.6957 17.0389L19.6612 33.5273C19.8366 33.8492 19.7178 34.2524 19.3952 34.4278C19.2945 34.4821 19.186 34.5081 19.0788 34.5081Z" fill="#333333"/>
<path d="M19.0785 34.5081C18.971 34.5081 18.8628 34.4821 18.7621 34.4278C18.4392 34.2524 18.3204 33.8492 18.4955 33.5273L27.461 17.0389L25.208 8.93608C25.1097 8.58277 25.3165 8.21648 25.6698 8.11851C26.0225 8.01917 26.3898 8.22636 26.4874 8.58001L28.8124 16.942C28.8585 17.1079 28.8384 17.2857 28.7564 17.437L19.6626 34.1612C19.5417 34.3828 19.3141 34.5081 19.0785 34.5081Z" fill="#333333"/>
</svg>
