<svg width="46" height="46" viewBox="0 0 46 46" fill="none" xmlns="http://www.w3.org/2000/svg">
<g clip-path="url(#clip0_22705_279527)">
<path d="M17.25 23C23.5922 23 28.75 17.8422 28.75 11.5C28.75 5.15775 23.5922 0 17.25 0C10.9078 0 5.75 5.15775 5.75 11.5C5.75 17.8422 10.9078 23 17.25 23ZM17.25 1.91667C22.5343 1.91667 26.8333 6.21575 26.8333 11.5C26.8333 16.7843 22.5343 21.0833 17.25 21.0833C11.9657 21.0833 7.66667 16.7843 7.66667 11.5C7.66667 6.21575 11.9657 1.91667 17.25 1.91667ZM8.625 26.8333H19.1667V28.75H8.625C4.92583 28.75 1.91667 31.7592 1.91667 35.4583V46H0V35.4583C0 30.7031 3.86975 26.8333 8.625 26.8333ZM46 30.6667H38.2126L36.1119 23.322H32.9341L30.8315 30.6667H23V33.7333L28.4759 36.8939L25.9382 43.8361L28.3916 45.6588L34.5211 40.7943L40.641 45.7029L43.1959 43.9453L40.4474 36.9763L45.9981 33.7199V30.6686L46 30.6667ZM38.065 36.1502L40.8537 43.2285L40.7292 43.3148L34.5307 38.341L28.3552 43.24L28.2306 43.148L30.8315 36.0372L24.9167 32.6255L32.2767 32.5833L34.3792 25.2387H34.6667L36.7674 32.5833H44.0833L38.065 36.1502Z" fill="black"/>
</g>
<defs>
<clipPath id="clip0_22705_279527">
<rect width="46" height="46" fill="white"/>
</clipPath>
</defs>
</svg>
