<svg width="21" height="20" viewBox="0 0 21 20" fill="none" xmlns="http://www.w3.org/2000/svg">
<path d="M10.6567 17.4502C10.4944 17.4502 10.332 17.4221 10.1696 17.3661C10.0072 17.31 9.86028 17.2232 9.72887 17.1056C8.98102 16.4166 8.28124 15.7069 7.62953 14.9767C6.97782 14.2464 6.41132 13.5165 5.93001 12.7868C5.44871 12.0571 5.06783 11.3338 4.78739 10.6169C4.50693 9.90001 4.3667 9.2077 4.3667 8.53996C4.3667 6.6169 4.98876 5.06002 6.23289 3.86931C7.477 2.67861 8.95162 2.08325 10.6567 2.08325C12.3619 2.08325 13.8365 2.67861 15.0806 3.86931C16.3247 5.06002 16.9468 6.6169 16.9468 8.53996C16.9468 9.2077 16.8066 9.89868 16.5261 10.6129C16.2457 11.3271 15.8661 12.0504 15.3875 12.7828C14.9088 13.5151 14.3437 14.2451 13.692 14.9727C13.0403 15.7002 12.3405 16.4085 11.5926 17.0976C11.4631 17.2152 11.316 17.3033 11.1512 17.3621C10.9864 17.4208 10.8215 17.4502 10.6567 17.4502ZM10.6582 9.88771C11.0728 9.88771 11.4273 9.74007 11.7216 9.44479C12.016 9.14952 12.1631 8.79455 12.1631 8.3799C12.1631 7.96525 12.0155 7.61075 11.7202 7.31642C11.4249 7.02209 11.07 6.87492 10.6553 6.87492C10.2407 6.87492 9.88618 7.02256 9.59185 7.31784C9.29751 7.61311 9.15034 7.96808 9.15034 8.38273C9.15034 8.79738 9.29798 9.15188 9.59326 9.44621C9.88854 9.74054 10.2435 9.88771 10.6582 9.88771Z" fill="#545454"/>
</svg>
