<svg width="49" height="49" viewBox="0 0 49 49" fill="none" xmlns="http://www.w3.org/2000/svg">
<rect x="0.569767" y="0.569767" width="47.8605" height="47.8605" rx="23.9302" stroke="#E2E2E2" stroke-width="1.13953"/>
<path d="M32.8641 27.3374L31.7245 25.4458C31.4852 25.0241 31.2687 24.2265 31.2687 23.7593V20.8762C31.2687 18.1983 29.6962 15.8851 27.4285 14.8025C26.8359 13.7541 25.742 13.1046 24.4885 13.1046C23.2464 13.1046 22.1297 13.7769 21.5371 14.8367C19.315 15.9421 17.7766 18.2325 17.7766 20.8762V23.7593C17.7766 24.2265 17.5601 25.0241 17.3208 25.4344L16.1699 27.3374C15.7141 28.1009 15.6115 28.9441 15.8964 29.719C16.1699 30.4825 16.8194 31.0751 17.6627 31.36C19.8734 32.1121 22.198 32.4767 24.5227 32.4767C26.8473 32.4767 29.172 32.1121 31.3827 31.3714C32.1803 31.1093 32.7957 30.5053 33.092 29.719C33.3883 28.9328 33.3085 28.0667 32.8641 27.3374Z" fill="#333333"/>
<path d="M27.7245 33.6277C27.2459 34.9496 25.981 35.8954 24.4996 35.8954C23.5994 35.8954 22.7105 35.5308 22.0838 34.8812C21.7191 34.5394 21.4456 34.0835 21.2861 33.6163C21.4342 33.6391 21.5824 33.6505 21.7419 33.6733C22.004 33.7075 22.2775 33.7417 22.551 33.7645C23.2005 33.8214 23.8615 33.8556 24.5224 33.8556C25.1719 33.8556 25.8215 33.8214 26.4596 33.7645C26.6989 33.7417 26.9382 33.7303 27.1661 33.6961C27.3484 33.6733 27.5308 33.6505 27.7245 33.6277Z" fill="#333333"/>
</svg>
