<svg width="20" height="20" viewBox="0 0 20 20" fill="none" xmlns="http://www.w3.org/2000/svg">
<path d="M6.25001 9.16683C5.44445 9.16683 4.75695 8.88211 4.18751 8.31266C3.61807 7.74322 3.33334 7.05572 3.33334 6.25016C3.33334 5.44461 3.61807 4.75711 4.18751 4.18766C4.75695 3.61822 5.44445 3.3335 6.25001 3.3335C7.05557 3.3335 7.74307 3.61822 8.31251 4.18766C8.88195 4.75711 9.16668 5.44461 9.16668 6.25016C9.16668 7.05572 8.88195 7.74322 8.31251 8.31266C7.74307 8.88211 7.05557 9.16683 6.25001 9.16683ZM6.25001 7.50016C6.59723 7.50016 6.89237 7.37863 7.13543 7.13558C7.37848 6.89252 7.50001 6.59738 7.50001 6.25016C7.50001 5.90294 7.37848 5.6078 7.13543 5.36475C6.89237 5.12169 6.59723 5.00016 6.25001 5.00016C5.90279 5.00016 5.60765 5.12169 5.36459 5.36475C5.12154 5.6078 5.00001 5.90294 5.00001 6.25016C5.00001 6.59738 5.12154 6.89252 5.36459 7.13558C5.60765 7.37863 5.90279 7.50016 6.25001 7.50016ZM13.75 16.6668C12.9445 16.6668 12.257 16.3821 11.6875 15.8127C11.1181 15.2432 10.8333 14.5557 10.8333 13.7502C10.8333 12.9446 11.1181 12.2571 11.6875 11.6877C12.257 11.1182 12.9445 10.8335 13.75 10.8335C14.5556 10.8335 15.2431 11.1182 15.8125 11.6877C16.382 12.2571 16.6667 12.9446 16.6667 13.7502C16.6667 14.5557 16.382 15.2432 15.8125 15.8127C15.2431 16.3821 14.5556 16.6668 13.75 16.6668ZM13.75 15.0002C14.0972 15.0002 14.3924 14.8786 14.6354 14.6356C14.8785 14.3925 15 14.0974 15 13.7502C15 13.4029 14.8785 13.1078 14.6354 12.8647C14.3924 12.6217 14.0972 12.5002 13.75 12.5002C13.4028 12.5002 13.1076 12.6217 12.8646 12.8647C12.6215 13.1078 12.5 13.4029 12.5 13.7502C12.5 14.0974 12.6215 14.3925 12.8646 14.6356C13.1076 14.8786 13.4028 15.0002 13.75 15.0002ZM3.91668 16.0835C3.7639 15.9307 3.68751 15.7363 3.68751 15.5002C3.68751 15.2641 3.7639 15.0696 3.91668 14.9168L14.9167 3.91683C15.0695 3.76405 15.2639 3.68766 15.5 3.68766C15.7361 3.68766 15.9306 3.76405 16.0833 3.91683C16.2361 4.06961 16.3125 4.26405 16.3125 4.50016C16.3125 4.73627 16.2361 4.93072 16.0833 5.0835L5.08334 16.0835C4.93057 16.2363 4.73612 16.3127 4.50001 16.3127C4.2639 16.3127 4.06945 16.2363 3.91668 16.0835Z" fill="#545454"/>
</svg>
