<svg width="33" height="33" viewBox="0 0 33 33" fill="none" xmlns="http://www.w3.org/2000/svg">
<path d="M16.5 19.0871C17.1478 19.0871 17.6987 18.8602 18.1525 18.4064C18.6063 17.9525 18.8333 17.4017 18.8333 16.7538C18.8333 16.1059 18.6063 15.5551 18.1525 15.1013C17.6987 14.6474 17.1478 14.4205 16.5 14.4205C15.8521 14.4205 15.3013 14.6474 14.8474 15.1013C14.3936 15.5551 14.1667 16.1059 14.1667 16.7538C14.1667 17.4017 14.3936 17.9525 14.8474 18.4064C15.3013 18.8602 15.8521 19.0871 16.5 19.0871ZM11.5 24.0102H21.4999V23.5256C21.4999 23.0521 21.3726 22.6316 21.1179 22.264C20.8632 21.8965 20.5145 21.6145 20.0718 21.4179C19.5196 21.182 18.9465 20.9995 18.3525 20.8705C17.7585 20.7414 17.141 20.6769 16.5 20.6769C15.8589 20.6769 15.2414 20.7414 14.6474 20.8705C14.0534 20.9995 13.4803 21.182 12.9282 21.4179C12.4855 21.6145 12.1367 21.8965 11.882 22.264C11.6273 22.6316 11.5 23.0521 11.5 23.5256V24.0102ZM24.5768 29.3948H8.4231C7.90023 29.3948 7.449 29.205 7.0694 28.8254C6.6898 28.4458 6.5 27.9946 6.5 27.4717V5.98462C6.5 5.46176 6.6898 5.01052 7.0694 4.63092C7.449 4.25132 7.90023 4.06152 8.4231 4.06152H18.9051L26.4999 11.6564V27.4717C26.4999 27.9946 26.3101 28.4458 25.9305 28.8254C25.5509 29.205 25.0997 29.3948 24.5768 29.3948ZM24.5768 27.882C24.6794 27.882 24.7734 27.8393 24.8589 27.7538C24.9444 27.6683 24.9871 27.5743 24.9871 27.4717V12.3384L18.223 5.57432H8.4231C8.32052 5.57432 8.22649 5.61706 8.141 5.70252C8.05553 5.78801 8.0128 5.88205 8.0128 5.98462V27.4717C8.0128 27.5743 8.05553 27.6683 8.141 27.7538C8.22649 27.8393 8.32052 27.882 8.4231 27.882H24.5768Z" fill="#4F4F4F"/>
</svg>
