<svg width="32" height="32" viewBox="0 0 32 32" fill="none" xmlns="http://www.w3.org/2000/svg">
<path d="M6.42242 25.1537C6.20808 25.1537 6.02844 25.0806 5.88348 24.9344C5.7385 24.7881 5.66602 24.6069 5.66602 24.3908C5.66602 24.1746 5.7385 23.9956 5.88348 23.8537C6.02844 23.7118 6.20808 23.6409 6.42242 23.6409H8.42755V13.3383C8.42755 11.5759 8.97968 9.9751 10.0839 8.53579C11.1882 7.09648 12.6361 6.20502 14.4275 5.86142V4.90759C14.4275 4.46414 14.5762 4.10371 14.8735 3.82629C15.1709 3.54887 15.5435 3.41016 15.9915 3.41016C16.4394 3.41016 16.8147 3.54887 17.1172 3.82629C17.4198 4.10371 17.5711 4.46414 17.5711 4.90759V5.86142C19.3625 6.20502 20.8138 7.09648 21.9249 8.53579C23.0361 9.9751 23.5916 11.5759 23.5916 13.3383V23.6409H25.5762C25.7905 23.6409 25.9702 23.714 26.1151 23.8603C26.2601 24.0065 26.3326 24.1877 26.3326 24.4038C26.3326 24.62 26.2601 24.799 26.1151 24.9409C25.9702 25.0828 25.7905 25.1537 25.5762 25.1537H6.42242ZM15.9993 29.0768C15.3566 29.0768 14.7942 28.8434 14.3121 28.3768C13.8301 27.9101 13.5891 27.34 13.5891 26.6665H18.4095C18.4095 27.34 18.1762 27.9101 17.7095 28.3768C17.2429 28.8434 16.6728 29.0768 15.9993 29.0768ZM9.94032 23.6409H22.0788V13.3383C22.0788 11.6398 21.4955 10.1985 20.3289 9.01446C19.1623 7.83037 17.7306 7.23832 16.034 7.23832C14.3374 7.23832 12.8976 7.83037 11.7147 9.01446C10.5318 10.1985 9.94032 11.6398 9.94032 13.3383V23.6409Z" fill="#4F4F4F"/>
</svg>
