<svg width="42" height="42" viewBox="0 0 42 42" fill="none" xmlns="http://www.w3.org/2000/svg">
<path d="M16.0529 37.9651C14.7112 37.9651 13.5361 37.559 12.5276 36.7468C11.5191 35.9346 10.8242 34.8936 10.4428 33.6238C10.0883 34.2138 9.59862 34.6653 8.97378 34.9783C8.34894 35.2913 7.69102 35.4478 7 35.4478C5.78171 35.4478 4.74797 35.0224 3.89878 34.1717C3.04959 33.3211 2.625 32.2881 2.625 31.0728C2.625 29.9981 2.99968 29.0193 3.74902 28.1365C4.49838 27.2536 5.44405 26.8066 6.58604 26.7954C5.99821 26.2569 5.53324 25.6091 5.19111 24.8519C4.84896 24.0947 4.67788 23.3066 4.67788 22.4877C4.67788 21.5168 4.91514 20.6066 5.38965 19.7571C5.86416 18.9076 6.52883 18.2069 7.38364 17.655C7.46318 17.913 7.57057 18.189 7.70582 18.4829C7.84104 18.7768 7.97931 19.0416 8.12066 19.2771C7.57772 19.6877 7.16715 20.177 6.88896 20.745C6.61074 21.313 6.47163 21.9085 6.47163 22.5314C6.47163 24.3443 7.14246 25.5132 8.48413 26.0382C9.8258 26.5632 11.2067 26.9648 12.6269 27.243L13.0207 27.9363C12.6998 28.8696 12.4396 29.6588 12.2399 30.3038C12.0402 30.9488 11.9404 31.5451 11.9404 32.0925C11.9404 33.1829 12.3354 34.137 13.1254 34.9548C13.9155 35.7726 14.8801 36.1814 16.0192 36.1814C17.2622 36.1814 18.2819 35.7137 19.0784 34.7781C19.8748 33.8425 20.5288 32.7319 21.0404 31.4463C21.5519 30.1608 21.9485 28.8382 22.23 27.4786C22.5116 26.1189 22.7477 25.0072 22.9384 24.1435L24.6683 24.6247C24.4282 25.7802 24.141 27.1252 23.8067 28.6598C23.4724 30.1944 22.9962 31.6488 22.3781 33.023C21.76 34.3972 20.949 35.5645 19.945 36.5247C18.941 37.485 17.6436 37.9651 16.0529 37.9651V37.9651ZM7 33.6978C7.72018 33.6978 8.33773 33.4403 8.85264 32.9254C9.36755 32.4105 9.625 31.793 9.625 31.0728C9.625 30.3526 9.36755 29.7351 8.85264 29.2202C8.33773 28.7053 7.72018 28.4478 7 28.4478C6.27979 28.4478 5.66224 28.7053 5.14736 29.2202C4.63245 29.7351 4.375 30.3526 4.375 31.0728C4.375 31.793 4.63245 32.4105 5.14736 32.9254C5.66224 33.4403 6.27979 33.6978 7 33.6978V33.6978ZM17.6414 26.4824C16.4567 25.4211 15.3736 24.4289 14.392 23.5057C13.4105 22.5824 12.5625 21.6771 11.8479 20.7898C11.1334 19.9025 10.5843 19.0151 10.2006 18.1278C9.81686 17.2405 9.625 16.3167 9.625 15.3564C9.625 13.7068 10.1897 12.3173 11.319 11.188C12.4484 10.0586 13.8379 9.49394 15.4875 9.49394C15.8061 9.49394 16.0933 9.51245 16.349 9.54946C16.6048 9.58647 16.8471 9.63864 17.076 9.70596C16.9369 9.43672 16.8269 9.15988 16.7461 8.87545C16.6654 8.59102 16.625 8.29236 16.625 7.97949C16.625 6.76423 17.05 5.73125 17.8999 4.88055C18.7498 4.02985 19.7819 3.60449 20.9961 3.60449C22.2102 3.60449 23.2436 4.02985 24.0961 4.88055C24.9487 5.73125 25.375 6.76423 25.375 7.97949C25.375 8.30033 25.3346 8.59928 25.2539 8.87637C25.1731 9.15345 25.0632 9.42661 24.924 9.69585C25.1529 9.62853 25.3952 9.57806 25.651 9.54443C25.9067 9.51077 26.1939 9.49394 26.5125 9.49394C27.8362 9.49394 28.9928 9.8703 29.9822 10.623C30.9716 11.3757 31.6503 12.3366 32.0183 13.5055C31.7433 13.4629 31.4339 13.4416 31.0902 13.4416C30.7464 13.4416 30.432 13.4595 30.1471 13.4954C29.8308 12.8246 29.3523 12.2816 28.7118 11.8666C28.0712 11.4515 27.3431 11.2439 26.5274 11.2439C25.4293 11.2439 24.5566 11.5261 23.9094 12.0903C23.2621 12.6546 22.4202 13.5391 21.3836 14.7439H20.5726C19.5069 13.5033 18.6504 12.6097 18.0031 12.0634C17.3559 11.5171 16.5173 11.2439 15.4875 11.2439C14.3019 11.2439 13.3201 11.633 12.5421 12.411C11.764 13.189 11.375 14.1708 11.375 15.3564C11.375 16.0345 11.5478 16.7346 11.8933 17.4567C12.2388 18.179 12.7357 18.9411 13.3842 19.7432C14.0326 20.5453 14.819 21.3984 15.7433 22.3026C16.6677 23.2068 17.7165 24.1838 18.8899 25.2338L17.6414 26.4824V26.4824ZM21 10.6045C21.7202 10.6045 22.3377 10.347 22.8526 9.83213C23.3675 9.31725 23.625 8.6997 23.625 7.97949C23.625 7.25931 23.3675 6.64177 22.8526 6.12686C22.3377 5.61195 21.7202 5.35449 21 5.35449C20.2798 5.35449 19.6623 5.61195 19.1474 6.12686C18.6325 6.64177 18.375 7.25931 18.375 7.97949C18.375 8.6997 18.6325 9.31725 19.1474 9.83213C19.6623 10.347 20.2798 10.6045 21 10.6045ZM25.8361 37.9988C25.4209 37.9988 25.0104 37.9544 24.6046 37.8655C24.1989 37.7766 23.8073 37.636 23.4298 37.4435C23.592 37.2337 23.7542 36.9866 23.9163 36.702C24.0785 36.4174 24.226 36.1552 24.3586 35.9156C24.6178 36.0231 24.8769 36.0999 25.1361 36.146C25.3952 36.192 25.6543 36.2151 25.9135 36.2151C27.0487 36.2151 28.0196 35.8073 28.8262 34.9916C29.6328 34.1759 30.036 33.2062 30.036 32.0824C30.036 31.535 29.9362 30.9444 29.7365 30.3105C29.5368 29.6767 29.2766 28.8931 28.9558 27.9598L29.3832 27.2666C30.8325 26.9883 32.2208 26.5811 33.5478 26.0449C34.8749 25.5087 35.5385 24.3342 35.5385 22.5213C35.5385 21.1079 35.041 20.0601 34.0459 19.3781C33.0509 18.696 31.9308 18.355 30.6856 18.355C29.5095 18.355 28.1375 18.5547 26.5694 18.9541C25.0014 19.3534 23.1909 19.8952 21.138 20.5795L20.6567 18.8497C22.6625 18.2103 24.4679 17.6651 26.0731 17.2141C27.6782 16.7632 29.1518 16.5377 30.4937 16.5377C32.2595 16.5377 33.8333 17.0571 35.2154 18.0958C36.5974 19.1346 37.2885 20.6098 37.2885 22.5213C37.2885 23.3307 37.123 24.0995 36.7921 24.8278C36.4612 25.5562 36.0018 26.2121 35.414 26.7954C36.556 26.829 37.5016 27.2761 38.251 28.1365C39.0003 28.9969 39.375 29.9757 39.375 31.0728C39.375 32.2619 38.9504 33.2883 38.1012 34.1521C37.252 35.0159 36.2183 35.4478 35 35.4478C34.309 35.4478 33.6511 35.2913 33.0262 34.9783C32.4014 34.6653 31.9117 34.2138 31.5572 33.6238C31.1758 34.8936 30.4696 35.9403 29.4387 36.7637C28.4078 37.587 27.2069 37.9988 25.8361 37.9988ZM35.0438 33.6978C35.764 33.6978 36.3742 33.4403 36.8745 32.9254C37.3748 32.4105 37.625 31.793 37.625 31.0728C37.625 30.3526 37.3675 29.7278 36.8526 29.1983C36.3378 28.6688 35.7202 28.4041 35 28.4041C34.2798 28.4041 33.6623 28.6615 33.1474 29.1764C32.6325 29.6913 32.375 30.3089 32.375 31.0291C32.375 31.7492 32.6397 32.3741 33.1692 32.9036C33.6987 33.4331 34.3236 33.6978 35.0438 33.6978V33.6978Z" fill="black"/>
</svg>
