<svg width="21" height="20" viewBox="0 0 21 20" fill="none" xmlns="http://www.w3.org/2000/svg">
<path d="M7.26121 11.6187C7.05715 11.6187 6.88328 11.5468 6.73958 11.4031C6.59589 11.2594 6.52404 11.0856 6.52404 10.8815C6.52404 10.6775 6.59589 10.5036 6.73958 10.3599C6.88328 10.2162 7.05715 10.1443 7.26121 10.1443C7.46527 10.1443 7.63914 10.2162 7.78283 10.3599C7.92653 10.5036 7.99838 10.6775 7.99838 10.8815C7.99838 11.0856 7.92653 11.2594 7.78283 11.4031C7.63914 11.5468 7.46527 11.6187 7.26121 11.6187ZM10.5945 11.6187C10.3905 11.6187 10.2166 11.5468 10.0729 11.4031C9.92922 11.2594 9.85738 11.0856 9.85738 10.8815C9.85738 10.6775 9.92922 10.5036 10.0729 10.3599C10.2166 10.2162 10.3905 10.1443 10.5945 10.1443C10.7986 10.1443 10.9725 10.2162 11.1162 10.3599C11.2599 10.5036 11.3317 10.6775 11.3317 10.8815C11.3317 11.0856 11.2599 11.2594 11.1162 11.4031C10.9725 11.5468 10.7986 11.6187 10.5945 11.6187ZM13.9279 11.6187C13.7238 11.6187 13.5499 11.5468 13.4063 11.4031C13.2626 11.2594 13.1907 11.0856 13.1907 10.8815C13.1907 10.6775 13.2626 10.5036 13.4063 10.3599C13.5499 10.2162 13.7238 10.1443 13.9279 10.1443C14.1319 10.1443 14.3058 10.2162 14.4495 10.3599C14.5932 10.5036 14.665 10.6775 14.665 10.8815C14.665 11.0856 14.5932 11.2594 14.4495 11.4031C14.3058 11.5468 14.1319 11.6187 13.9279 11.6187ZM5.01765 17.9167C4.5967 17.9167 4.2404 17.7709 3.94873 17.4792C3.65706 17.1876 3.51123 16.8313 3.51123 16.4103V5.25653C3.51123 4.83559 3.65706 4.47928 3.94873 4.18762C4.2404 3.89595 4.5967 3.75012 5.01765 3.75012H6.1715V2.6283C6.1715 2.44562 6.23267 2.29312 6.355 2.17078C6.47732 2.04846 6.62983 1.9873 6.81252 1.9873C6.9952 1.9873 7.14771 2.04846 7.27004 2.17078C7.39236 2.29312 7.45352 2.44562 7.45352 2.6283V3.75012H13.7676V2.61228C13.7676 2.43494 13.8274 2.28644 13.9471 2.16678C14.0667 2.04713 14.2152 1.9873 14.3926 1.9873C14.5699 1.9873 14.7184 2.04713 14.8381 2.16678C14.9578 2.28644 15.0176 2.43494 15.0176 2.61228V3.75012H16.1714C16.5924 3.75012 16.9487 3.89595 17.2404 4.18762C17.532 4.47928 17.6779 4.83559 17.6779 5.25653V16.4103C17.6779 16.8313 17.532 17.1876 17.2404 17.4792C16.9487 17.7709 16.5924 17.9167 16.1714 17.9167H5.01765ZM5.01765 16.6668H16.1714C16.2355 16.6668 16.2943 16.6401 16.3478 16.5866C16.4012 16.5332 16.4279 16.4744 16.4279 16.4103V8.58987H4.76121V16.4103C4.76121 16.4744 4.78792 16.5332 4.84133 16.5866C4.89476 16.6401 4.95354 16.6668 5.01765 16.6668Z" fill="#545454"/>
</svg>
