<svg width="26" height="27" viewBox="0 0 26 27" fill="none" xmlns="http://www.w3.org/2000/svg">
<g clip-path="url(#clip0_23020_2245)">
<path d="M0 13.5001C0 15.0902 0.286051 16.6135 0.80859 18.0218L13 19.1522L25.1914 18.0218C25.7139 16.6135 26 15.0902 26 13.5001C26 11.9099 25.7139 10.3867 25.1914 8.97834L13 7.8479L0.80859 8.97834C0.286051 10.3867 0 11.9099 0 13.5001Z" fill="#FFDA44"/>
<path d="M25.1914 8.97828C23.3546 4.02793 18.5895 0.5 13 0.5C7.41046 0.5 2.6454 4.02793 0.808594 8.97828H25.1914Z" fill="#D80027"/>
<path d="M0.808594 18.0217C2.6454 22.9721 7.41046 26.5 13 26.5C18.5895 26.5 23.3546 22.9721 25.1914 18.0217H0.808594Z" fill="#D80027"/>
</g>
<defs>
<clipPath id="clip0_23020_2245">
<rect width="26" height="26" fill="white" transform="translate(0 0.5)"/>
</clipPath>
</defs>
</svg>
