<svg width="33" height="33" viewBox="0 0 33 33" fill="none" xmlns="http://www.w3.org/2000/svg">
<path d="M11.4795 24.242H21.5205V22.7292H11.4795V24.242ZM11.4795 18.6651H21.5205V17.1523H11.4795V18.6651ZM8.4231 29.4856C7.90023 29.4856 7.449 29.2958 7.0694 28.9162C6.6898 28.5366 6.5 28.0854 6.5 27.5625V6.07544C6.5 5.55258 6.6898 5.10134 7.0694 4.72174C7.449 4.34214 7.90023 4.15234 8.4231 4.15234H20.0077L26.4999 10.6446V27.5625C26.4999 28.0854 26.3101 28.5366 25.9305 28.9162C25.5509 29.2958 25.0997 29.4856 24.5768 29.4856H8.4231ZM19.2513 11.3266V5.66514H8.4231C8.32052 5.66514 8.22649 5.70788 8.141 5.79334C8.05553 5.87883 8.0128 5.97287 8.0128 6.07544V27.5625C8.0128 27.6651 8.05553 27.7591 8.141 27.8446C8.22649 27.9301 8.32052 27.9728 8.4231 27.9728H24.5768C24.6794 27.9728 24.7734 27.9301 24.8589 27.8446C24.9444 27.7591 24.9871 27.6651 24.9871 27.5625V11.3266H19.2513Z" fill="#4F4F4F"/>
</svg>
