<svg width="26" height="27" viewBox="0 0 26 27" fill="none" xmlns="http://www.w3.org/2000/svg">
<path d="M13 0.5C15.5712 0.5 18.0846 1.26244 20.2224 2.6909C22.3603 4.11935 24.0265 6.14968 25.0104 8.52512C25.9944 10.9006 26.2518 13.5144 25.7502 16.0362C25.2486 18.5579 24.0105 20.8743 22.1924 22.6924C20.3743 24.5105 18.0579 25.7486 15.5362 26.2502C13.0144 26.7518 10.4006 26.4944 8.02512 25.5104C5.64968 24.5265 3.61935 22.8603 2.1909 20.7224C0.762437 18.5846 0 16.0712 0 13.5C0 10.0522 1.36964 6.74558 3.80761 4.30761C6.24558 1.86964 9.55219 0.5 13 0.5" fill="#F0F0F0"/>
<path d="M12.435 13.5H26C26.0005 12.3549 25.8499 11.2147 25.552 10.109H12.435V13.5Z" fill="#D80027"/>
<path d="M12.435 6.71705H24.092C23.2969 5.42079 22.2817 4.27324 21.092 3.32605H12.435V6.71705Z" fill="#D80027"/>
<path d="M13 26.5C15.94 26.5043 18.7939 25.5076 21.092 23.674H4.90799C7.20611 25.5076 10.06 26.5043 13 26.5Z" fill="#D80027"/>
<path d="M1.908 20.283H24.092C24.7384 19.2283 25.2301 18.0864 25.552 16.892H0.447998C0.769863 18.0864 1.26155 19.2283 1.908 20.283Z" fill="#D80027"/>
<path d="M6.022 2.53002H7.207L6.107 3.33002L6.528 4.63002L5.428 3.83002L4.328 4.63002L4.692 3.51102C3.72012 4.32076 2.87093 5.26729 2.171 6.32102H2.551L1.851 6.83102C1.74167 7.01302 1.63667 7.19802 1.536 7.38602L1.871 8.41702L1.246 7.96302C1.082 8.28968 0.937333 8.62468 0.812 8.96802L1.181 10.1H2.543L1.443 10.9L1.864 12.2L0.764 11.4L0.104 11.88C0.0359402 12.4174 0.00120715 12.9584 0 13.5H13V0.500016C10.5278 0.496112 8.10629 1.20057 6.022 2.53002ZM6.522 12.2L5.422 11.4L4.322 12.2L4.743 10.9L3.643 10.1H5L5.421 8.80002L5.842 10.1H7.207L6.107 10.9L6.522 12.2ZM6.1 7.11802L6.521 8.41802L5.421 7.61802L4.321 8.41802L4.742 7.11802L3.642 6.31802H5L5.421 5.01802L5.842 6.31802H7.207L6.1 7.11802ZM11.189 12.2L10.089 11.4L8.989 12.2L9.41 10.9L8.3 10.1H9.666L10.087 8.80002L10.508 10.1H11.87L10.77 10.9L11.189 12.2ZM10.768 7.11802L11.189 8.41802L10.089 7.61802L8.989 8.41802L9.41 7.11802L8.31 6.31802H9.666L10.087 5.01802L10.508 6.31802H11.87L10.768 7.11802ZM10.768 3.33102L11.189 4.63102L10.089 3.83102L8.989 4.63102L9.41 3.33102L8.31 2.53102H9.666L10.087 1.23102L10.508 2.53102H11.87L10.768 3.33102Z" fill="#0052B4"/>
</svg>
